<?xml version="1.0" encoding="UTF-8" standalone="no"?>
<svg
   xmlns:dc="http://purl.org/dc/elements/1.1/"
   xmlns:cc="http://creativecommons.org/ns#"
   xmlns:rdf="http://www.w3.org/1999/02/22-rdf-syntax-ns#"
   xmlns:svg="http://www.w3.org/2000/svg"
   xmlns="http://www.w3.org/2000/svg"
   xmlns:sodipodi="http://sodipodi.sourceforge.net/DTD/sodipodi-0.dtd"
   xmlns:inkscape="http://www.inkscape.org/namespaces/inkscape"
   id="Capa_1"
   enable-background="new 0 0 512 512"
   height="512"
   viewBox="0 0 512 512"
   width="512"
   version="1.1"
   sodipodi:docname="bathroomlight1-off.svg"
   inkscape:version="1.0.1 (3bc2e813f5, 2020-09-07)">
  <metadata
     id="metadata75">
    <rdf:RDF>
      <cc:Work
         rdf:about="">
        <dc:format>image/svg+xml</dc:format>
        <dc:type
           rdf:resource="http://purl.org/dc/dcmitype/StillImage" />
      </cc:Work>
    </rdf:RDF>
  </metadata>
  <defs
     id="defs73" />
  <sodipodi:namedview
     pagecolor="#ffffff"
     bordercolor="#666666"
     borderopacity="1"
     objecttolerance="10"
     gridtolerance="10"
     guidetolerance="10"
     inkscape:pageopacity="0"
     inkscape:pageshadow="2"
     inkscape:window-width="1920"
     inkscape:window-height="1018"
     id="namedview71"
     showgrid="false"
     inkscape:zoom="1.6601562"
     inkscape:cx="256"
     inkscape:cy="272.86588"
     inkscape:window-x="-6"
     inkscape:window-y="-6"
     inkscape:window-maximized="1"
     inkscape:current-layer="g66" />
  <g
     id="g68">
    <g
       id="g54">
      <path
         d="m189.733 146.5h-33.133v-81.3c0-4.418 3.582-8 8-8h17.133c4.418 0 8 3.582 8 8z"
         fill="#a7ccf9"
         id="path2" />
      <path
         d="m181.733 57.2h-17.133c-1.037 0-2.024.204-2.933.563 2.965 1.171 5.067 4.056 5.067 7.437v81.3h23v-81.3c-.001-4.418-3.582-8-8.001-8z"
         fill="#8cbdf9"
         id="path4" />
      <g
         id="g10">
        <path
           d="m123.467 146.5h-33.134v-97.867c0-4.418 3.582-8 8-8h17.133c4.418 0 8 3.582 8 8v97.867z"
           fill="#a7dda7"
           id="path6" />
        <path
           d="m115.467 40.633h-17.134c-1.037 0-2.024.204-2.933.563 2.965 1.171 5.067 4.056 5.067 7.437v97.867h23v-97.867c0-4.418-3.582-8-8-8z"
           fill="#8ace9b"
           id="path8" />
      </g>
      <g
         id="g34">
        <path
           d="m272.567 289.133c0-18.608-15.34-33.634-34.065-33.121h-38.877v36.737h72.942z"
           fill="#eabc73"
           id="path12" />
        <g
           id="g26">
          <path
             d="m347.117 471.367-8.284-33.134v-8.066h41.417v46h-32.917z"
             fill="#c3bec6"
             id="path14" />
          <path
             d="m164.883 471.367 8.284-33.134v-8.066h-41.417v46h32.917z"
             fill="#c3bec6"
             id="path16" />
          <path
             d="m438.233 311h-364.466v11.267l19.238 89.776c3.274 15.277 16.774 26.191 32.398 26.191h261.196c15.624 0 29.124-10.914 32.398-26.191l19.238-89.776v-11.267z"
             fill="#e2dfe2"
             id="path18" />
          <path
             d="m415.233 311v11.267l-19.238 89.776c-3.273 15.277-16.774 26.191-32.398 26.191h23c15.624 0 29.124-10.914 32.398-26.191l19.238-89.776v-11.267z"
             fill="#d3ced5"
             id="path20" />
          <path
             d="m73.767 322.267c-9.15 0-16.567-7.417-16.567-16.567s7.417-16.567 16.567-16.567h364.467c9.15 0 16.567 7.417 16.567 16.567s-7.417 16.567-16.567 16.567z"
             fill="#f4f2f4"
             id="path22" />
          <path
             d="m438.233 289.133h-23c9.149 0 16.567 7.417 16.567 16.567s-7.417 16.567-16.567 16.567h23c9.149 0 16.567-7.417 16.567-16.567s-7.417-16.567-16.567-16.567z"
             fill="#e2dfe2"
             id="path24" />
        </g>
        <g
           id="g32">
          <path
             d="m156.6 256c-18.299 0-33.133 14.834-33.133 33.133v91.117c0 4.575 3.709 8.283 8.283 8.283h66.267c4.575 0 8.283-3.708 8.283-8.283v-90.427c0-18.054 14.155-33.315 32.202-33.81z"
             fill="#efd27c"
             id="path28" />
          <path
             d="m123.467 322.267h82.833v33.133h-82.833z"
             fill="#eaa96a"
             id="path30" />
        </g>
      </g>
      <path
         d="m371.967 82.05c0-18.299-14.834-33.133-33.133-33.133s-33.133 14.834-33.133 33.133v9.45h66.267v-9.45z"
         fill="#e2dfe2"
         id="path36" />
      <path
         d="m338.833 48.917c-4.044 0-7.917.727-11.5 2.053 12.63 4.675 21.633 16.825 21.633 31.08v9.45h23v-9.45c.001-18.299-14.834-33.133-33.133-33.133z"
         fill="#d3ced5"
         id="path38" />
      <path
         d="m371.967 115.183c9.15 0 16.567-7.417 16.567-16.567s-7.417-16.567-16.567-16.567h-66.267c-9.15 0-16.567 7.417-16.567 16.567 0 9.149 7.417 16.567 16.567 16.567z"
         fill="#f4f2f4"
         id="path40" />
      <path
         d="m371.967 82.05h-23c9.149 0 16.566 7.417 16.566 16.567s-7.417 16.567-16.566 16.567h23c9.149 0 16.566-7.417 16.566-16.567s-7.417-16.567-16.566-16.567z"
         fill="#e2dfe2"
         id="path42" />
      <path
         d="m214.867 173.167h-149.667c-4.418 0-8-3.582-8-8v-17.133c0-4.418 3.582-8 8-8h149.667c4.418 0 8 3.582 8 8v17.133c0 4.418-3.582 8-8 8z"
         fill="#eaa96a"
         id="path44" />
      <path
         d="m496.5 504.5h-481c-4.418 0-8-3.582-8-8v-17.133c0-4.418 3.582-8 8-8h481c4.418 0 8 3.582 8 8v17.133c0 4.418-3.582 8-8 8z"
         fill="#eaa96a"
         id="path46" />
      <g
         fill="#e5935d"
         id="g52">
        <path
           d="m496.5 471.367h-23c4.418 0 8 3.582 8 8v17.133c0 4.418-3.582 8-8 8h23c4.418 0 8-3.582 8-8v-17.133c0-4.419-3.582-8-8-8z"
           id="path48" />
        <path
           d="m214.867 140.033h-23c4.418 0 8 3.582 8 8v17.133c0 4.418-3.582 8-8 8h23c4.418 0 8-3.582 8-8v-17.133c0-4.418-3.582-8-8-8z"
           id="path50" />
      </g>
    </g>
    <g
       id="g66">
      <path
         d="M 496.5,463.867 H 387.75 v -18.159 c 18.551,-0.533 34.672,-13.859 38.58,-32.094 l 18.144,-84.673 c 10.254,-2.756 17.826,-12.129 17.826,-23.241 0,-13.271 -10.796,-24.067 -24.066,-24.067 h -9.066 V 48.917 C 429.167,21.944 407.223,0 380.25,0 c -24.636,0 -45.066,18.31 -48.423,42.034 -16.979,2.965 -30.368,16.497 -33.106,33.552 -9.877,2.999 -17.087,12.188 -17.087,23.031 0,13.27 10.797,24.066 24.067,24.066 h 66.267 c 13.271,0 24.066,-10.796 24.066,-24.066 0,-10.844 -7.21,-20.032 -17.086,-23.031 C 376.271,58.919 363.427,45.605 346.997,42.241 350.106,26.726 363.833,15 380.25,15 c 18.702,0 33.917,15.215 33.917,33.917 V 281.03165 L 279.371,281.634 C 277.856,273.45 273.872,265.95 267.766,260.009 260.112,252.562 250.095,248.5 239.447,248.5 H 239.302 156.6 c -19.842,0 -36.397,14.3 -39.927,33.133 H 73.767 c -13.271,0 -24.066,10.796 -24.066,24.067 0,11.112 7.572,20.485 17.826,23.241 l 18.145,84.673 c 3.908,18.234 20.028,31.561 38.579,32.094 v 18.159 H 15.5 c -8.547,0 -15.5,6.953 -15.5,15.5 V 496.5 c 0,8.547 6.953,15.5 15.5,15.5 h 26.7 c 4.143,0 7.5,-3.358 7.5,-7.5 0,-4.142 -3.357,-7.5 -7.5,-7.5 H 15.5 c -0.275,0 -0.5,-0.224 -0.5,-0.5 v -17.133 c 0,-0.276 0.225,-0.5 0.5,-0.5 h 481 c 0.275,0 0.5,0.224 0.5,0.5 V 496.5 c 0,0.276 -0.225,0.5 -0.5,0.5 H 72.2 c -4.143,0 -7.5,3.358 -7.5,7.5 0,4.142 3.357,7.5 7.5,7.5 h 424.3 c 8.547,0 15.5,-6.953 15.5,-15.5 v -17.133 c 0,-8.547 -6.953,-15.5 -15.5,-15.5 z M 371.967,107.683 H 305.7 c -5,0 -9.067,-4.067 -9.067,-9.066 0,-4.999 4.067,-9.067 9.067,-9.067 h 66.267 c 4.999,0 9.066,4.067 9.066,9.067 0,4.999 -4.067,9.066 -9.066,9.066 z M 363.345,74.55 h -49.023 c 3.215,-10.486 12.986,-18.133 24.511,-18.133 11.526,0 21.297,7.647 24.512,18.133 z M 447.3,305.7 c 0,4.999 -4.067,9.066 -9.066,9.066 H 213.8 v -18.133 h 224.434 c 4.998,0 9.066,4.068 9.066,9.067 z M 83.044,329.767 h 32.922 V 347.9 H 86.93 Z M 130.967,347.9 V 329.767 H 198.8 V 347.9 Z m 0,15 H 198.8 v 17.35 c 0,0.432 -0.352,0.783 -0.783,0.783 H 131.75 c -0.432,0 -0.783,-0.352 -0.783,-0.783 z m 107.74,-99.39 c 0.221,-0.006 0.439,-0.009 0.658,-0.01 h 0.068 0.032 c 6.71,0.008 13.02,2.569 17.841,7.259 3.152,3.067 5.41,6.793 6.651,10.874 H 215.1 c 3.318,-10.236 12.643,-17.822 23.607,-18.123 z M 156.6,263.5 h 51.637 c -5.637,6.887 -9.127,15.627 -9.409,25.086 -0.013,0.181 -0.028,0.362 -0.028,0.547 0,0.071 0.009,0.141 0.011,0.211 -0.002,0.16 -0.011,0.318 -0.011,0.478 v 24.944 h -67.833 v -25.633 c 0,-14.134 11.499,-25.633 25.633,-25.633 z m -82.833,33.133 h 42.2 v 18.133 h -42.2 c -4.999,0 -9.066,-4.067 -9.066,-9.066 -10e-4,-4.999 4.067,-9.067 9.066,-9.067 z M 100.338,410.471 90.144,362.9 h 25.822 v 17.35 c 0,8.703 7.08,15.783 15.783,15.783 h 66.267 c 8.703,0 15.783,-7.081 15.783,-15.783 V 362.9 h 110.033 c 4.143,0 7.5,-3.358 7.5,-7.5 0,-4.142 -3.357,-7.5 -7.5,-7.5 H 213.8 V 329.767 H 428.956 L 425.07,347.9 h -71.237 c -4.143,0 -7.5,3.358 -7.5,7.5 0,4.142 3.357,7.5 7.5,7.5 h 68.023 l -10.193,47.571 c -2.517,11.741 -13.059,20.263 -25.065,20.263 H 125.402 c -12.006,-10e-4 -22.548,-8.522 -25.064,-20.263 z m 232.639,35.262 4.534,18.133 H 174.489 l 4.534,-18.133 z M 139.25,463.867 v -18.133 h 24.311 l -4.534,18.133 z m 213.723,0 -4.533,-18.133 h 24.311 v 18.133 z"
         id="path56"
         sodipodi:nodetypes="sccccssccsccssssccsscccscscssccccsssssssssssssssssssssssssssssccscssccssccccccccccccsssscsccscccssccscsccsssccscssccsssscsssccccsssccscsccccccccccccccc" />
      <path
         d="m313.2 164.883v-16.566c0-4.142-3.357-7.5-7.5-7.5s-7.5 3.358-7.5 7.5v16.566c0 4.142 3.357 7.5 7.5 7.5s7.5-3.357 7.5-7.5z"
         id="path58"
         style="fill:#0000ff" />
      <path
         d="m346.333 164.883v-16.566c0-4.142-3.357-7.5-7.5-7.5s-7.5 3.358-7.5 7.5v16.566c0 4.142 3.357 7.5 7.5 7.5s7.5-3.357 7.5-7.5z"
         id="path60"
         style="fill:#0000ff" />
      <path
         d="m379.467 164.883v-16.566c0-4.142-3.357-7.5-7.5-7.5s-7.5 3.358-7.5 7.5v16.566c0 4.142 3.357 7.5 7.5 7.5s7.5-3.357 7.5-7.5z"
         id="path62"
         style="fill:#0000ff" />
      <path
         d="m65.2 180.667h149.667c8.547 0 15.5-6.953 15.5-15.5v-17.133c0-8.547-6.953-15.5-15.5-15.5h-17.634v-67.334c0-8.547-6.953-15.5-15.5-15.5h-17.133c-8.547 0-15.5 6.953-15.5 15.5v67.333h-18.133v-83.9c0-8.547-6.953-15.5-15.5-15.5h-17.134c-8.547 0-15.5 6.953-15.5 15.5v83.9h-17.633c-8.547 0-15.5 6.953-15.5 15.5v17.133c0 8.547 6.953 15.501 15.5 15.501zm99.4-115.967h17.134c.275 0 .5.224.5.5v17.633h-18.134v-17.633c0-.276.224-.5.5-.5zm-.5 33.134h18.134v34.7h-18.134zm-65.767-49.701h17.134c.275 0 .5.224.5.5v17.633h-18.134v-17.633c0-.276.225-.5.5-.5zm-.5 33.134h18.134v51.267h-18.134zm-33.133 66.766c0-.276.225-.5.5-.5h149.667c.275 0 .5.224.5.5v17.133c0 .276-.225.5-.5.5h-149.667c-.275 0-.5-.224-.5-.5z"
         id="path64" />
      <path
         style="fill:#ececec;stroke-width:0.602353"
         d="m 414.27763,152.54588 -0.15998,-110.983527 -1.40506,-3.74831 C 408.9483,27.771938 400.91967,19.858845 391.04177,16.45508 c -5.7532,-1.982459 -16.14794,-1.964153 -21.79942,0.03839 -5.09131,1.804057 -11.31114,5.969674 -14.77577,9.895806 -3.26491,3.699805 -6.8726,10.82125 -7.06991,13.955725 -0.13866,2.202762 -0.10393,2.238668 3.17274,3.279569 7.71925,2.45218 15.23219,7.561921 19.75759,13.437633 3.43557,4.46071 6.58334,10.803589 7.46563,15.043557 0.71158,3.419606 0.73483,3.44714 4.46045,5.28125 4.82638,2.376023 9.87295,7.735712 11.76345,12.493336 1.0777,2.712136 1.38771,4.68583 1.39881,8.905535 0.0128,4.855519 -0.18566,5.844839 -1.90158,9.481489 -3.37582,7.15451 -9.92646,12.26047 -17.57715,13.70067 -4.34304,0.81757 -69.88312,0.81757 -74.22616,0 -12.70224,-2.39114 -21.47965,-14.55788 -19.37337,-26.854241 0.37341,-2.179969 1.42364,-5.435482 2.33385,-7.234475 2.05215,-4.055998 7.02942,-8.844379 11.20339,-10.778203 3.06277,-1.419005 3.18092,-1.566888 3.9471,-4.94048 1.08614,-4.782394 4.37301,-11.203338 8.00483,-15.637535 5.08061,-6.203078 11.7459,-10.55821 20.10905,-13.139349 l 4.1706,-1.287181 0.74139,-3.634565 c 1.07088,-5.249891 4.11875,-12.173094 7.43673,-16.892468 9.92959,-14.123475 25.98076,-22.07845107 42.50032,-21.06320274 7.57358,0.46545167 11.82223,1.58108894 18.6839,4.90613604 9.83426,4.7655177 17.51963,12.4602977 22.26848,22.2957577 5.28163,10.938904 4.8039,-0.980939 4.99123,124.536476 l 0.16608,111.2847 h -7.2282 -7.22821 z m -37.39895,-45.9848 c 5.73104,-4.24766 5.85701,-12.002493 0.25577,-15.744369 l -2.04673,-1.367299 h -36.082 c -30.6783,0 -36.3402,0.133511 -37.80598,0.891494 -5.24282,2.711173 -6.39884,9.859274 -2.34177,14.480024 1.0112,1.15169 2.69195,2.34544 3.735,2.65277 1.08971,0.32108 16.93179,0.51384 37.24101,0.45313 34.83578,-0.10414 35.36903,-0.12379 37.0447,-1.36575 z m -13.0575,-31.852142 c 0,-1.39676 -3.4294,-7.424223 -5.5057,-9.676746 C 352.85782,59.111336 346.61272,56.32 338.82353,56.32 c -10.15207,0 -19.13648,5.606496 -23.38882,14.595205 -0.88486,1.870432 -1.60883,3.553099 -1.60883,3.739256 0,0.186163 11.24894,0.33848 24.99765,0.33848 13.74871,0 24.99765,-0.127801 24.99765,-0.284003 z"
         id="path91" />
    </g>
  </g>
</svg>
