<?xml version="1.0"?><svg width="278.47568" height="219.3954" xmlns="http://www.w3.org/2000/svg" xmlns:undefined="http://www.w3.org/2000/svg">
 <metadata id="metadata11">image/svg+xml</metadata>
 <g>
  <title>Layer 1</title>
  <g id="g4">
   <path id="svg_1" stroke-linecap="null" stroke-linejoin="null" stroke-dasharray="null" stroke-width="null" d="m12.479077,182.614655l-10.97154,-128.343296l4.0201,-21.10553l11.557788,-8.542713l35.17588,-13.065327l50.251259,-8.040201l48.241203,-3.517588l51.758789,4.522613l15.075378,7.035176l4.020111,6.532663l4.522598,25.628141l2.512573,20.100502l20.603012,7.035175l14.070358,8.542717l10.552765,9.045219l0,19.597992l0,25.628136l1.507538,33.165833l-15.577881,11.055222l-43.718704,11.809097l-79.89949,15.20105l-37.185905,4.334183l-26.633125,7.85173" fill="#007fff"/>
   <path d="m55.697948,212.266052c-8.250008,-4.271454 -21.587318,-12.100983 -29.638468,-17.398956c-16.193511,-10.655945 -16.598011,-11.183807 -16.734791,-21.838593c-0.0388,-3.025024 -1.90546,-25.975006 -4.14805,-51c-5.17463,-57.743011 -6.04342,-73.501923 -4.46828,-81.049923c1.90922,-9.14908 4.55095,-12.455841 13.5757,-16.993401c4.328211,-2.17617 8.78558,-3.95669 9.90526,-3.95669c1.11965,0 2.81715,-0.432831 3.7722,-0.96184c7.943251,-4.39993 38.708914,-12.969511 53.736433,-14.96796c33.826241,-4.49839 77.288177,-5.37893 109.559845,-2.21968c20.194641,1.97698 25.041565,3.2843 29.191895,7.87374c2.236084,2.47267 6.74826,15.31576 6.74826,19.207729c0,1.63327 0.412292,5.129211 0.916229,7.768799c0.503906,2.639553 1.445465,9.339901 2.092346,14.889622c0.646851,5.549709 1.472046,10.557549 1.833771,11.128479c0.361694,0.57095 4.135742,1.988804 8.386749,3.150814c12.017975,3.285065 22.35408,8.773224 29.437149,15.63031l6.197815,6l0.551086,27c0.303101,14.849976 0.846191,33.524994 1.206848,41.5l0.655762,14.5l-5.387329,3.5c-7.59375,4.933472 -12.19165,6.847809 -18.186295,7.571777c-2.862274,0.345673 -9.25415,1.895294 -14.204132,3.443634c-17.717712,5.541962 -32.841949,9.529358 -39.5,10.41391c-1.375,0.182678 -4.666779,0.844269 -7.315063,1.470215c-2.648285,0.625946 -5.180237,0.912384 -5.626587,0.636505c-0.44635,-0.275848 -3.004578,0.12146 -5.684937,0.882935c-2.680389,0.761475 -7.798431,1.893188 -11.373413,2.514954c-3.575012,0.621765 -13.475006,2.419403 -22,3.994781c-15.598022,2.882446 -30.925232,4.766388 -45.234863,5.560028c-5.829132,0.323273 -8.43808,0.948883 -10.588959,2.539093c-1.569763,1.160583 -4.614037,2.554443 -6.765137,3.097534c-2.151093,0.54306 -5.486053,1.449066 -7.411041,2.013306c-7.553474,2.214081 -8.082764,2.081177 -23.500004,-5.901123zm27.692265,0.262451c3.383904,-1.375 6.70182,-2.5 7.373138,-2.5c0.671326,0 1.490631,-0.703674 1.820648,-1.563721c0.750671,-1.956146 -3.045143,-36.039825 -4.391907,-39.436279c-0.545204,-1.375 -1.104431,-14.211578 -1.242706,-28.525665l-0.251434,-26.025665l-4.450714,-5.165489c-3.889832,-4.514503 -6.410309,-6.100655 -20,-12.586121c-15.114307,-7.21302 -31.414747,-12.310524 -37.930738,-11.861732c-3.83536,0.26416 -8.71208,3.866936 -12.80106,9.457092c-4.41814,6.0401 -4.65919,8.829704 -2.48059,28.707581c2.12518,19.390564 3.11488,29.933014 4.12447,43.93454c0.93408,12.954437 1.06823,13.516571 3.753659,15.728973c7.7043,6.347198 27.072681,18.689758 37.284969,23.759949c6.324982,3.140228 12.625004,6.34259 14.000004,7.116394c3.695129,2.079498 8.289368,1.765015 15.192261,-1.039856zm-17.536652,-61.955048c-0.360588,-0.939697 -0.655609,-5.237396 -0.655609,-9.550476c0,-7.888275 -1.580204,-17.477448 -3.243103,-19.680206c-0.49231,-0.652161 -2.326508,-1.499634 -4.076019,-1.883331c-1.749481,-0.383705 -4.749241,-1.537605 -6.66608,-2.56427c-1.916851,-1.026672 -3.863171,-1.866669 -4.325161,-1.866669c-0.46199,0 -3.964558,-1.856293 -7.783478,-4.125061c-5.434811,-3.22876 -6.705662,-4.411621 -5.848892,-5.44397c1.240101,-1.494232 3.6609,-0.707275 10.249241,3.331818c2.09359,1.283508 7.2686,3.600891 11.500011,5.149719c7.513668,2.750267 7.75613,2.945313 10.375336,8.345612c3.4487,7.110535 4.940155,22.722321 2.59787,27.192749c-1.233093,2.353455 -1.573547,2.528809 -2.124115,1.094086zm45.002075,55.904419c5.299866,-0.852844 10.209351,-1.330627 10.909973,-1.061798c0.700623,0.26886 5.921997,-0.125 11.603088,-0.875214c13.162109,-1.738159 86.977417,-16.419037 88.397186,-17.581024c0.587341,-0.480713 5.76236,-2.00882 11.5,-3.395813c6.314606,-1.526428 10.925415,-3.191956 11.682068,-4.219788c1.440094,-1.956238 1.730957,-20.008301 0.35733,-22.1763c-0.702118,-1.108185 -2.415131,-0.80188 -9.23468,1.651215c-4.60498,1.656464 -13.322662,4.458099 -19.37265,6.22583c-6.050018,1.767731 -16.658752,4.927704 -23.575012,7.022125c-10.260223,3.107086 -15.230316,4.010406 -27,4.907135c-7.933746,0.604462 -19.092438,1.565094 -24.797058,2.134766c-5.70462,0.569672 -17.854645,0.980774 -27,0.913574c-9.145355,-0.0672 -17.244545,-0.093414 -17.998138,-0.058105c-1.079712,0.050507 -1.23333,1.388947 -0.72467,6.314056c0.355049,3.4375 0.910767,9.174988 1.234924,12.75c0.56881,6.272461 1.627441,9 3.493164,9c0.488556,0 5.224579,-0.697784 10.524475,-1.550629l0,-0.000031zm150.404495,-30.590881c2.440796,-1.177795 6.414185,-3.759369 8.829773,-5.736755l4.391907,-3.595276l-0.822449,-23.013245c-0.452332,-12.657288 -0.696655,-29.597839 -0.542908,-37.645714l0.27948,-14.632484l-6.422852,-6.422821c-7.222046,-7.222076 -17.61702,-12.829926 -27.435837,-14.801025c-3.211609,-0.644714 -7.639313,-1.562996 -9.839294,-2.040627c-2.200012,-0.477623 -6.925018,-1.163223 -10.5,-1.52356c-5.740204,-0.578545 -6.821472,-0.400688 -9.25,1.521523c-1.512512,1.197144 -2.75,2.837189 -2.75,3.644562c0,0.807343 -0.918884,2.710732 -2.041931,4.229767c-1.464508,1.980865 -2.089691,4.484375 -2.210785,8.853088c-0.171967,6.2052 1.125305,9.304077 3.89502,9.304077c0.768585,0 3.179535,1.125 5.357697,2.5c2.178131,1.375 5.078918,2.5 6.446198,2.5c1.367249,0 3.963715,0.630798 5.769867,1.401794c1.806152,0.770988 5.983917,2.233521 9.283936,3.25c7.685089,2.367249 13.762238,6.418419 16.658783,11.105133c2.125854,3.439697 2.290283,4.815186 2.314819,19.362427c0.023804,14.091248 -0.167084,15.874054 -1.905151,17.7995c-1.720459,1.905975 -1.807922,2.655609 -0.800232,6.860474c0.622223,2.596344 1.652069,7.420654 2.288544,10.720673c1.581512,8.199707 1.695404,8.5 3.22403,8.5c0.738907,0 3.34053,-0.963684 5.781387,-2.14151zm-5.542557,-58.144012c-0.418488,-0.982063 -0.567993,-5.81955 -0.332275,-10.75c0.2565,-5.365288 0.042694,-8.964478 -0.532532,-8.964478c-1.679352,0 -13.058655,-5.855133 -15.564911,-8.008827c-1.708832,-1.468437 -2.099365,-2.381737 -1.342194,-3.138908c1.511475,-1.511475 12.644318,4.592285 17.396545,9.537964c3.639786,3.787895 3.735428,4.075836 3.322525,10.004951c-0.233826,3.357658 -0.821411,7.67981 -1.305725,9.60482c-0.708923,2.81781 -1.02887,3.151978 -1.641434,1.714478zm-29.539703,-33.238647c-1.892517,-2.280396 -0.388306,-2.973427 2.436462,-1.122597c1.363342,0.893326 3.177399,1.35611 4.031219,1.028481c0.853821,-0.327637 1.552399,-0.097595 1.552399,0.511292c0,1.669952 -6.571625,1.328094 -8.020081,-0.417175zm-76.479919,90.69931c34.178131,-2.966797 31.687683,-2.513641 55.5,-10.098389c8.524994,-2.715393 20,-6.339905 25.5,-8.054443c13.063293,-4.072357 17.06604,-6.71347 18.578339,-12.258545c1.69043,-6.198181 0.498749,-22.480614 -1.884796,-25.753174c-1.005737,-1.380836 -2.11676,-3.285461 -2.468933,-4.232513c-1.026794,-2.761292 -9.806946,-7.735809 -13.724609,-7.775909c-1.925018,-0.019707 -7.325012,-1.641808 -12,-3.604668c-15.81311,-6.639351 -14.999268,-6.483223 -33.759735,-6.476349c-12.819519,0.004997 -18.585022,0.398125 -21.612,1.474846c-2.270538,0.807617 -13.353271,2.204323 -24.628265,3.103729c-24.887665,1.985321 -31.185509,2.857674 -41.39782,5.734131l-7.897865,2.224579l0.619995,25.020782c0.378357,15.270599 1.201744,28.138245 2.112915,33.020782c0.821159,4.399994 1.508705,8.085327 1.527863,8.189606c0.234993,1.277161 39.036041,0.917694 55.534912,-0.514465zm-57.375732,-69.682167c2.406647,-0.828819 5.275734,-1.909714 6.375732,-2.40197c3.240791,-1.450287 15.161896,-3.02478 27.5,-3.63208c13.004608,-0.640106 25.539307,-1.966766 38,-4.021843c4.674988,-0.771034 14.014252,-1.609322 20.753906,-1.862892c6.739655,-0.25354 12.702148,-0.738045 13.25,-1.07663c0.547852,-0.338593 0.996094,-3.504944 0.996094,-7.036354c0,-7.371056 2.004242,-13.241386 6.414246,-18.787071l3.042389,-3.825867l9.021698,0.289398c8.600983,0.275913 9.036285,0.188141 9.335724,-1.882236c0.531403,-3.674473 -4.63269,-37.761642 -6.383728,-42.137972c-1.975067,-4.93618 -5.819611,-8.38205 -11.640839,-10.4337c-2.468109,-0.86986 -15.425629,-2.45469 -30.51593,-3.7324c-28.644318,-2.42534 -30.772064,-2.37247 -82.77356,2.05685c-17.910339,1.52554 -23.280479,2.39523 -36.500004,5.911221c-22.299709,5.931029 -48.241158,15.96799 -50.558728,19.561618c-0.71614,1.110413 -2.27038,5.838871 -3.4539,10.507633c-1.9789,7.806419 -2.06491,9.41394 -1.0701,20c0.59495,6.331238 1.20167,14.968529 1.34827,19.194c0.14659,4.225487 0.61801,8.03421 1.04762,8.463799c0.4296,0.429604 2.13269,-0.6651 3.78465,-2.432701c1.65195,-1.767578 3.47789,-3.213776 4.05765,-3.213776c0.579741,0 3.2939,-1.125 6.031461,-2.5c5.65192,-2.838814 8.461489,-3.080513 11.2542,-0.968201c1.067629,0.807487 3.54262,1.487938 5.499998,1.512077c1.957382,0.024078 5.358871,0.735779 7.558872,1.581421c2.200008,0.84565 5.125,1.790497 6.5,2.099709c5.034008,1.131981 29.537121,14.381401 32.000011,17.303162c2.8862,3.424011 3.260895,3.484161 9.124268,1.464806z" id="path3288" fill="#000000"/>
  </g>
 </g>
</svg>