<?xml version="1.0" encoding="UTF-8" standalone="no"?>
<svg
   xmlns:dc="http://purl.org/dc/elements/1.1/"
   xmlns:cc="http://creativecommons.org/ns#"
   xmlns:rdf="http://www.w3.org/1999/02/22-rdf-syntax-ns#"
   xmlns:svg="http://www.w3.org/2000/svg"
   xmlns="http://www.w3.org/2000/svg"
   xmlns:sodipodi="http://sodipodi.sourceforge.net/DTD/sodipodi-0.dtd"
   xmlns:inkscape="http://www.inkscape.org/namespaces/inkscape"
   id="Capa_1"
   enable-background="new 0 0 512 512"
   height="512"
   viewBox="0 0 512 512"
   width="512"
   version="1.1"
   sodipodi:docname="garagelight2-on.svg"
   inkscape:version="1.0.1 (3bc2e813f5, 2020-09-07)">
  <metadata
     id="metadata123">
    <rdf:RDF>
      <cc:Work
         rdf:about="">
        <dc:format>image/svg+xml</dc:format>
        <dc:type
           rdf:resource="http://purl.org/dc/dcmitype/StillImage" />
        <dc:title></dc:title>
      </cc:Work>
    </rdf:RDF>
  </metadata>
  <defs
     id="defs121" />
  <sodipodi:namedview
     pagecolor="#ffffff"
     bordercolor="#666666"
     borderopacity="1"
     objecttolerance="10"
     gridtolerance="10"
     guidetolerance="10"
     inkscape:pageopacity="0"
     inkscape:pageshadow="2"
     inkscape:window-width="1920"
     inkscape:window-height="1018"
     id="namedview119"
     showgrid="false"
     inkscape:zoom="1.6601562"
     inkscape:cx="256"
     inkscape:cy="256"
     inkscape:window-x="-6"
     inkscape:window-y="-6"
     inkscape:window-maximized="1"
     inkscape:current-layer="Capa_1" />
  <g
     id="g116">
    <g
       id="g4">
      <path
         clip-rule="evenodd"
         d="m499.284 110.06-233.717-99.272c-7.824-3.345-11.31-3.345-19.162 0l-233.718 99.272c-4.535 1.502-5.187.85-5.187 6.321v49.636c0 2.721 2.211 4.932 4.932 4.932h27.383v328.12c0 2.551 2.098 4.649 4.649 4.649h423.044c2.58 0 4.677-2.098 4.677-4.649v-328.119h27.354c2.721 0 4.961-2.211 4.961-4.932v-49.636c0-5.471-.68-4.819-5.216-6.322z"
         fill="#b3e59f"
         fill-rule="evenodd"
         id="path2" />
    </g>
    <g
       id="g8">
      <path
         clip-rule="evenodd"
         d="m198.527 470.213h114.917v33.507h-114.917z"
         fill="#eceaec"
         fill-rule="evenodd"
         id="path6" />
    </g>
    <g
       id="g12">
      <path
         clip-rule="evenodd"
         d="m423.287 276.204h-334.602v227.516h334.603v-227.516z"
         fill="#eceaec"
         fill-rule="evenodd"
         id="path10" />
    </g>
    <g
       id="g16">
      <path
         clip-rule="evenodd"
         d="m88.685 200.205h334.603v303.515h-334.603z"
         fill="#c8c5c9"
         fill-rule="evenodd"
         id="path14" />
    </g>
    <g
       id="g20">
      <path
         clip-rule="evenodd"
         d="m158.474 119.443h-64.97c-2.636 0-4.819 2.183-4.819 4.819v29.113c0 2.636 2.183 4.819 4.819 4.819h64.97c2.636 0 4.819-2.183 4.819-4.819v-29.113c0-2.636-2.183-4.819-4.819-4.819z"
         fill="#6f6571"
         fill-rule="evenodd"
         id="path18" />
    </g>
    <g
       id="g24">
      <path
         clip-rule="evenodd"
         d="m288.471 119.443h-64.97c-2.636 0-4.819 2.183-4.819 4.819v29.113c0 2.636 2.183 4.819 4.819 4.819h64.97c2.665 0 4.819-2.183 4.819-4.819v-29.113c0-2.636-2.154-4.819-4.819-4.819z"
         fill="#6f6571"
         fill-rule="evenodd"
         id="path22" />
    </g>
    <g
       id="g28">
      <path
         clip-rule="evenodd"
         d="m423.287 153.375v-29.113c0-2.636-2.154-4.819-4.819-4.819h-64.942c-2.665 0-4.847 2.183-4.847 4.819v29.113c0 2.636 2.183 4.819 4.847 4.819h64.942c2.665 0 4.819-2.183 4.819-4.819z"
         fill="#6f6571"
         fill-rule="evenodd"
         id="path26" />
    </g>
    <g
       id="g32">
      <path
         clip-rule="evenodd"
         d="m88.685 238.219h334.602v-32.685-5.329h-5.329-323.944-5.329v5.329z"
         fill="#eceaec"
         fill-rule="evenodd"
         id="path30" />
    </g>
    <g
       id="g36">
      <path
         clip-rule="evenodd"
         d="m333.655 324.933c-8.929-18.794-10.658-18.568-31.918-18.511h-91.474c-21.288-.057-23.017-.283-31.918 18.511l-8.702 18.341-16.101 33.96h204.888l-16.101-33.96z"
         fill="#9fd4fe"
         fill-rule="evenodd"
         id="path34" />
    </g>
    <g
       id="g40">
      <path
         clip-rule="evenodd"
         d="m169.642 343.274h-24.463c-9.298 0-16.866 7.625-16.866 16.98 0 9.326 7.569 16.98 16.866 16.98h8.362z"
         fill="#ff8086"
         fill-rule="evenodd"
         id="path38" />
    </g>
    <g
       id="g44">
      <path
         clip-rule="evenodd"
         d="m358.43 377.234h-204.889l-10.091 21.289c-3.572 7.54-3.203 7.115-3.203 15.478v47.879c0 6.066.198 8.334 5.924 8.334h52.356 114.917 52.384c5.698 0 5.896-2.268 5.896-8.334v-47.88c0-8.362.397-7.937-3.203-15.478zm-171.61 28.29c9.723 0 17.603 7.881 17.603 17.604s-7.88 17.575-17.603 17.575-17.603-7.852-17.603-17.575 7.88-17.604 17.603-17.604zm120.757 17.604c0-9.723 7.88-17.604 17.575-17.604 9.723 0 17.603 7.881 17.603 17.604s-7.88 17.575-17.603 17.575c-9.695 0-17.575-7.852-17.575-17.575z"
         fill="#ff8086"
         fill-rule="evenodd"
         id="path42" />
    </g>
    <g
       id="g48">
      <path
         clip-rule="evenodd"
         d="m383.687 360.254c0-9.355-7.597-16.98-16.866-16.98h-24.491l16.101 33.96h8.391c9.268 0 16.865-7.654 16.865-16.98z"
         fill="#ff8086"
         fill-rule="evenodd"
         id="path46" />
    </g>
    <g
       id="g52">
      <path
         clip-rule="evenodd"
         d="m159.579 503.719h25.54c7.37 0 13.408-6.038 13.408-13.408v-20.098h-52.356v20.098c0 7.37 6.038 13.408 13.408 13.408z"
         fill="#6f6571"
         fill-rule="evenodd"
         id="path50" />
    </g>
    <g
       id="g56">
      <path
         clip-rule="evenodd"
         d="m326.881 503.719h25.512c7.37 0 13.436-6.038 13.436-13.408v-20.098h-52.384v20.098c-.001 7.37 6.037 13.408 13.436 13.408z"
         fill="#6f6571"
         fill-rule="evenodd"
         id="path54" />
    </g>
    <g
       id="g60">
      <path
         clip-rule="evenodd"
         d="m204.423 423.128c0-9.723-7.88-17.604-17.603-17.604s-17.603 7.881-17.603 17.604 7.88 17.575 17.603 17.575 17.603-7.852 17.603-17.575z"
         fill="#9fd4fe"
         fill-rule="evenodd"
         id="path58" />
    </g>
    <g
       id="g64">
      <path
         clip-rule="evenodd"
         d="m342.755 423.128c0-9.723-7.88-17.604-17.603-17.604-9.695 0-17.575 7.881-17.575 17.604s7.88 17.575 17.575 17.575c9.722 0 17.603-7.852 17.603-17.575z"
         fill="#9fd4fe"
         fill-rule="evenodd"
         id="path62" />
    </g>
    <g
       id="g68">
      <path
         clip-rule="evenodd"
         d="m312.084 324.933 24.775 52.301h21.572l-16.101-33.96-8.674-18.341c-8.929-18.794-10.658-18.568-31.918-18.511h-15.052c15.221.142 17.489 1.843 25.398 18.511z"
         fill="#72bffc"
         fill-rule="evenodd"
         id="path66" />
    </g>
    <g
       id="g72">
      <path
         clip-rule="evenodd"
         d="m146.171 470.213h52.356v16.753h-52.356z"
         fill="#5d5360"
         fill-rule="evenodd"
         id="path70" />
    </g>
    <g
       id="g76">
      <path
         clip-rule="evenodd"
         d="m313.444 470.213h52.384v16.753h-52.384z"
         fill="#5d5360"
         fill-rule="evenodd"
         id="path74" />
    </g>
    <g
       id="g80">
      <path
         clip-rule="evenodd"
         d="m93.503 137.075h64.97c2.636 0 4.819 2.183 4.819 4.819v-17.632c0-2.636-2.183-4.819-4.819-4.819h-64.97c-2.636 0-4.819 2.183-4.819 4.819v17.632c.001-2.636 2.183-4.819 4.819-4.819z"
         fill="#5d5360"
         fill-rule="evenodd"
         id="path78" />
    </g>
    <g
       id="g84">
      <path
         clip-rule="evenodd"
         d="m223.501 137.075h64.97c2.665 0 4.819 2.183 4.819 4.819v-17.632c0-2.636-2.154-4.819-4.819-4.819h-64.97c-2.636 0-4.819 2.183-4.819 4.819v17.632c0-2.636 2.182-4.819 4.819-4.819z"
         fill="#5d5360"
         fill-rule="evenodd"
         id="path82" />
    </g>
    <g
       id="g88">
      <path
         clip-rule="evenodd"
         d="m353.526 137.075h64.942c2.665 0 4.819 2.183 4.819 4.819v-17.632c0-2.636-2.154-4.819-4.819-4.819h-64.942c-2.665 0-4.847 2.183-4.847 4.819v17.632c0-2.636 2.183-4.819 4.847-4.819z"
         fill="#5d5360"
         fill-rule="evenodd"
         id="path86" />
    </g>
    <g
       id="g92">
      <path
         clip-rule="evenodd"
         d="m397.605 238.219h25.682v-32.685-5.329h-5.329-20.353z"
         fill="#dad8db"
         fill-rule="evenodd"
         id="path90" />
    </g>
    <g
       id="g96">
      <path
         clip-rule="evenodd"
         d="m397.605 276.204v227.515h25.682v-227.515-37.985h-25.682z"
         fill="#b6b1b7"
         fill-rule="evenodd"
         id="path94" />
    </g>
    <g
       id="g114">
      <path
         d="m283.879 430.198h-55.758c-4.142 0-7.5 3.357-7.5 7.5s3.358 7.5 7.5 7.5h55.758c4.143 0 7.5-3.357 7.5-7.5s-3.358-7.5-7.5-7.5z"
         id="path98" />
      <path
         d="m283.879 401.057h-55.758c-4.142 0-7.5 3.357-7.5 7.5s3.358 7.5 7.5 7.5h55.758c4.143 0 7.5-3.357 7.5-7.5s-3.358-7.5-7.5-7.5z"
         id="path100" />
      <path
         d="m325.151 398.024c-13.826 0-25.075 11.262-25.075 25.104 0 13.826 11.249 25.075 25.075 25.075 13.842 0 25.104-11.249 25.104-25.075 0-13.842-11.262-25.104-25.104-25.104zm0 35.179c-5.556 0-10.075-4.52-10.075-10.075 0-5.571 4.52-10.104 10.075-10.104 5.571 0 10.104 4.532 10.104 10.104 0 5.555-4.532 10.075-10.104 10.075z"
         id="path102" />
      <path
         d="m186.82 398.024c-13.842 0-25.103 11.262-25.103 25.104 0 13.826 11.261 25.075 25.103 25.075s25.103-11.249 25.103-25.075c0-13.842-11.261-25.104-25.103-25.104zm0 35.179c-5.571 0-10.103-4.52-10.103-10.075 0-5.571 4.532-10.104 10.103-10.104s10.103 4.532 10.103 10.104c0 5.555-4.532 10.075-10.103 10.075z"
         id="path104" />
      <path
         d="m503.088 103.392c-.351-.105-.738-.223-1.167-.36l-233.405-99.141c-9.703-4.146-15.321-4.147-25.043-.007l-233.421 99.147c-.426.138-.811.254-1.158.358-6.567 1.985-8.894 5.384-8.894 12.993v49.636c0 6.855 5.577 12.433 12.432 12.433h19.883v320.62c0 6.699 5.45 12.149 12.149 12.149h44.221 70.895 25.541 141.761 25.512 70.895 44.221c6.714 0 12.177-5.45 12.177-12.149v-199.622c0-4.143-3.357-7.5-7.5-7.5s-7.5 3.357-7.5 7.5v196.771h-33.897v-296.015c0-4.143-3.357-7.5-7.5-7.5h-334.605c-4.142 0-7.5 3.357-7.5 7.5v296.015h-33.87v-325.27c0-4.143-3.358-7.5-7.5-7.5h-24.815v-46.255c.015-.005.03-.01.045-.015.194-.064.386-.137.574-.217l233.725-99.275c5.969-2.544 7.334-2.543 13.291.003l233.718 99.272c.188.08.38.152.573.217.025.008.05.016.074.024v46.245h-24.815c-4.143 0-7.5 3.357-7.5 7.5v93.887c0 4.143 3.357 7.5 7.5 7.5s7.5-3.357 7.5-7.5v-86.386h19.854c6.871 0 12.461-5.577 12.461-12.433v-49.636c0-7.606-2.332-11.004-8.912-12.989zm-357.909 266.342c-5.165 0-9.366-4.253-9.366-9.48s4.202-9.48 9.366-9.48h12.612l-8.991 18.961h-3.621zm60.848 107.979h99.917v12.599c0 2.053.31 4.032.865 5.908h-101.645c.554-1.876.864-3.855.864-5.908v-12.599zm-58.278-15c-.002-.324-.002-.616-.002-.834l-.006-50.035c-.022-4.812-.022-4.812 2.486-10.108l8.061-17.001h195.401l8.063 17.02c2.504 5.243 2.504 5.243 2.479 9.967-.004.683-.008 50.668-.01 50.992h-216.472zm215.432-92.979-8.983-18.961h12.624c5.164 0 9.365 4.253 9.365 9.48s-4.201 9.48-9.365 9.48h-3.641zm-27.799-23.642c.112.275.237.542.379.8l10.822 22.843h-181.182l19.722-41.592c3.51-7.411 5.834-11.664 8.06-12.913 2.402-1.349 7.937-1.333 16.323-1.31l92.251.002.736-.002c8.369-.022 13.9-.038 16.303 1.31 2.23 1.252 4.562 5.507 8.082 12.914zm-175.803 150.128c-3.202 0-5.908-2.706-5.908-5.908v-12.599h37.356v12.599c0 3.202-2.706 5.908-5.908 5.908zm167.302 0c-3.273 0-5.937-2.65-5.937-5.908v-12.599h37.385v12.599c0 3.202-2.719 5.908-5.937 5.908zm-230.696-250.501h143.219c4.142 0 7.5-3.357 7.5-7.5s-3.358-7.5-7.5-7.5h-143.219v-23.014h319.603v23.014h-141.773c-4.143 0-7.5 3.357-7.5 7.5s3.357 7.5 7.5 7.5h141.772v250.501h-43.323c.555-1.876.865-3.855.865-5.908v-14.222c5.889-3.188 5.896-10.303 5.896-14.211 0 0 .004-49.42.007-50.08.04-7.475-.292-8.863-3.933-16.487l-5.124-10.815c11.853-1.648 21.011-11.888 21.011-24.243 0-13.499-10.931-24.48-24.365-24.48h-19.73l-6.661-14.06c-4.518-9.508-7.953-16.007-14.292-19.565-5.842-3.278-12.559-3.263-23.687-3.229l-92.168.002-.735-.002c-11.146-.036-17.866-.05-23.707 3.229-6.342 3.561-9.77 10.062-14.273 19.57l-6.664 14.055h-19.724c-13.436 0-24.366 10.981-24.366 24.48 0 12.347 9.147 22.582 20.989 24.24l-5.13 10.819c-3.634 7.673-3.965 9.069-3.931 16.6l.006 49.967c0 3.912.007 11.036 5.924 14.219v14.213c0 2.053.31 4.032.864 5.908h-43.35v-250.501z"
         id="path106" />
      <path
         d="m93.503 111.943c-6.792 0-12.319 5.526-12.319 12.319v29.112c0 6.793 5.526 12.319 12.319 12.319h64.97c6.792 0 12.319-5.526 12.319-12.319v-29.112c0-6.793-5.526-12.319-12.319-12.319zm62.289 38.751h-59.607v-23.751h59.608v23.751z"
         id="path108" />
      <path
         d="m223.5 111.943c-6.792 0-12.319 5.526-12.319 12.319v29.112c0 6.793 5.526 12.319 12.319 12.319h64.97c6.793 0 12.319-5.526 12.319-12.319v-29.112c0-6.793-5.526-12.319-12.319-12.319zm62.29 38.751h-59.608v-23.751h59.608z"
         id="path110" />
      <path
         d="m353.526 111.943c-6.809 0-12.348 5.526-12.348 12.319v29.112c0 6.793 5.539 12.319 12.348 12.319h64.941c6.793 0 12.319-5.526 12.319-12.319v-29.112c0-6.793-5.526-12.319-12.319-12.319zm62.261 38.751h-59.608v-23.751h59.608z"
         id="path112" />
    </g>
  </g>
  <path
     style="fill:#4d4d4d;stroke-width:0.602353"
     d="M 96.376471,371.04941 V 246.06118 h 72.312269 c 78.85304,0 74.19685,0.20447 77.01807,-3.38214 0.69185,-0.87953 1.2579,-2.24024 1.2579,-3.0238 v -1.42465 h 9.63764 c 8.77629,0 9.63785,0.0942 9.6399,1.05412 0.004,1.89676 2.39029,5.02383 4.50924,5.90918 1.76115,0.73586 11.52595,0.86729 64.43857,0.86729 h 62.36288 v 124.98823 124.98824 l -12.19765,6e-4 -12.19764,6e-4 0.19338,-9.73602 c 0.189,-9.51543 0.22691,-9.7624 1.67327,-10.90011 0.81394,-0.64025 2.08222,-2.29046 2.81839,-3.66715 1.32724,-2.48203 1.33998,-2.76874 1.51605,-34.12659 0.12285,-21.87936 -0.0302,-32.45874 -0.49673,-34.33411 -0.37086,-1.49083 -2.28041,-6.06996 -4.24344,-10.17585 -1.96304,-4.10547 -3.56916,-7.6541 -3.56916,-7.88541 0,-0.23131 1.152,-0.76059 2.56,-1.17617 9.19253,-2.71327 15.77816,-10.21127 17.43015,-19.84497 1.82409,-10.63727 -4.02105,-21.89188 -13.68413,-26.34831 -4.1213,-1.90066 -9.69502,-2.60708 -20.76249,-2.63144 l -9.33647,-0.0205 -6.18948,-12.71847 c -5.72995,-11.77418 -6.49022,-13.01749 -10.24,-16.74599 -3.5342,-3.51413 -4.62639,-4.21446 -8.56817,-5.49408 l -4.51764,-1.46657 H 256 194.25882 l -4.48145,1.40738 c -3.96088,1.2439 -4.95618,1.88211 -8.56816,5.49409 -3.78329,3.78328 -4.54625,5.03099 -10.2762,16.80517 l -6.18948,12.71846 -9.33647,0.0206 c -11.33641,0.0249 -16.77116,0.73918 -20.89695,2.74625 -19.93178,9.69617 -17.90418,38.79426 3.19384,45.83495 1.62001,0.54061 3.04344,1.06424 3.16319,1.1636 0.11974,0.0994 -1.40854,3.65164 -3.39619,7.89393 -1.98766,4.24229 -3.91377,8.79749 -4.28025,10.12267 -0.94274,3.40889 -0.92681,62.60938 0.0179,66.361 0.432,1.7156 1.54542,3.64215 2.97108,5.14083 l 2.28016,2.39695 0.19128,9.58319 0.19127,9.58319 -21.23294,-8.1e-4 -21.232939,-8.2e-4 z"
     id="path125" />
  <path
     style="fill:#4d4d4d;stroke-width:0.602353"
     d="m 206.06872,492.87529 c 0.24772,-1.73929 0.47018,-5.80517 0.49437,-9.03529 l 0.044,-5.87294 H 256 305.39294 l 0.0263,6.47529 c 0.0144,3.56141 0.24909,7.6273 0.52148,9.0353 l 0.49521,2.56 h -50.40878 -50.40878 z"
     id="path127" />
  <path
     style="fill:#4d4d4d;stroke-width:0.602353"
     d="M 397.55294,371.04941 V 246.06118 h 9.0353 9.03529 v 124.98823 124.98824 h -9.03529 -9.0353 z"
     id="path129" />
  <path
     style="fill:#4d4d4d;stroke-width:0.602353"
     d="m 246.96471,236.71586 c 0,-0.88486 -0.85739,-2.45034 -2.06188,-3.76471 l -2.06188,-2.24997 -73.23224,-0.1577 -73.232239,-0.1577 V 219.24936 208.11294 H 246.96471 397.55294 V 219.25647 230.4 h -62.67462 c -69.19417,0 -65.0009,-0.23584 -67.458,3.79395 -0.6467,1.06062 -1.17683,2.40276 -1.17807,2.98252 -0.002,0.95991 -0.86361,1.05412 -9.6399,1.05412 h -9.63764 z"
     id="path131" />
  <path
     style="fill:#4d4d4d;stroke-width:0.602353;fill-opacity:1"
     d="m 397.55294,219.25647 v -11.14353 h 9.0353 9.03529 V 219.25647 230.4 h -9.03529 -9.0353 z"
     id="path133" />
  <path
     style="fill:#d5e5ff;stroke-width:0.602353"
     d="m 166.24941,369.15744 c 0,-0.92454 22.51135,-47.73203 23.97589,-49.85268 0.89326,-1.29344 2.38926,-2.9198 3.32444,-3.61412 1.69323,-1.25714 1.93075,-1.26311 56.98425,-1.43099 44.3435,-0.13522 55.41015,-0.016 55.92176,0.60235 1.25502,1.51691 26.04307,53.10361 26.04307,54.19854 0,0.26564 -37.40611,0.48299 -83.1247,0.48299 -45.71859,0 -83.12471,-0.17374 -83.12471,-0.38609 z"
     id="path135" />
  <path
     style="fill:#80b3ff;stroke-width:0.602353"
     d="m 324.71359,351.00497 c -4.77882,-10.17838 -10.77868,-22.67785 -13.33302,-27.77661 l -4.64426,-9.27045 5.18126,0.36564 c 5.78534,0.40828 7.18884,1.11753 9.85713,4.98121 1.46454,2.12065 23.97589,48.92814 23.97589,49.85268 0,0.21235 -2.77835,0.37879 -6.17412,0.36988 l -6.17412,-0.0162 z"
     id="path139" />
  <path
     style="fill:#aaccff;stroke-width:0.602353"
     d="m 320.40459,431.42096 c -3.51838,-2.37103 -4.9141,-5.0447 -4.64485,-8.89774 0.14412,-2.06241 0.68301,-3.94796 1.40861,-4.92864 2.95952,-3.99999 9.13911,-5.30213 12.92719,-2.72399 3.40335,2.3163 4.51152,4.33607 4.51152,8.22282 0,2.89175 -0.28771,3.84345 -1.73588,5.7421 -3.07114,4.02648 -8.62047,5.17735 -12.46659,2.58545 z"
     id="path141" />
  <path
     style="fill:#aaccff;stroke-width:0.602353;fill-opacity:1"
     d="m 182.78425,431.94332 c -2.46747,-1.07476 -4.95426,-4.14066 -5.43438,-6.69987 -1.55162,-8.27085 6.92995,-14.56919 14.11635,-10.48268 3.22736,1.83522 4.50501,3.91265 4.77404,7.76245 0.19278,2.75875 -0.0143,3.70486 -1.18952,5.43421 -3.00035,4.41512 -7.74299,5.9562 -12.26649,3.98589 z"
     id="path143" />
  <path
     style="fill:#fff6d5;fill-opacity:1;stroke-width:0.602353"
     d="M 96.376471,371.04941 V 246.06118 l 70.927059,-0.0359 c 39.00988,-0.0198 72.26611,-0.25565 73.90272,-0.52423 4.15513,-0.68189 5.5737,-2.44911 5.67823,-7.07387 0.0705,-3.12041 -0.13783,-3.80075 -1.77082,-5.78186 L 243.26288,230.4 H 169.81968 96.376471 V 219.25647 208.11294 H 256 415.62353 v 11.12945 11.12946 l -72.43294,0.16466 c -59.082,0.13432 -72.6932,0.31295 -73.84489,0.96912 -0.77658,0.44245 -1.94126,2.00104 -2.58819,3.46353 -1.16503,2.63374 -1.20501,2.65908 -4.19536,2.65908 -1.85937,0 -2.87612,0.23138 -2.64686,0.60235 0.20476,0.33129 1.57241,0.60235 3.03924,0.60235 2.43622,0 2.7391,0.16936 3.50093,1.95765 0.45869,1.0767 1.56835,2.63529 2.46591,3.46353 l 1.63193,1.50588 72.53512,0.16009 72.53511,0.16009 v 124.97873 124.97874 h -21.16884 -21.16883 l 0.31293,-9.3113 c 0.30205,-8.98761 0.36864,-9.3775 1.91541,-11.21574 3.85183,-4.57764 3.64905,-2.5679 3.85462,-38.20237 0.13229,-22.93402 -0.0133,-33.21043 -0.49341,-34.84416 -0.37457,-1.2744 -2.17305,-5.57787 -3.99662,-9.56325 -1.82357,-3.98539 -3.09236,-7.45018 -2.81954,-7.69955 0.27282,-0.24937 1.4931,-0.77181 2.71173,-1.16099 3.73197,-1.19183 9.18053,-5.1249 11.52603,-8.32011 2.45931,-3.35025 4.24407,-7.14629 3.74193,-7.95878 -0.17825,-0.28841 -0.002,-0.63184 0.39224,-0.76317 0.84111,-0.28037 1.54327,-11.30804 0.72015,-11.31019 -0.289,-6e-4 -0.55349,-0.79776 -0.58777,-1.77112 -0.0932,-2.64612 -2.98461,-8.08324 -5.88642,-11.06899 -5.93405,-6.10569 -11.19504,-7.61238 -26.63534,-7.62806 l -10.29701,-0.0105 -6.37892,-12.83662 c -6.12658,-12.32885 -6.55335,-13.00196 -10.78868,-17.01647 -3.7508,-3.55525 -5.04573,-4.38237 -8.66562,-5.53514 l -4.25586,-1.3553 h -61.79134 -61.79132 l -4.29234,1.4522 c -7.90379,2.67405 -11.53028,6.97819 -19.45772,23.09368 l -6.0002,12.19765 -10.33081,0.0105 c -12.10727,0.0123 -17.17373,0.87669 -21.94966,3.74497 -1.8013,1.08181 -4.22681,3.05116 -5.39002,4.37634 -2.63277,2.99934 -5.81464,9.5764 -5.4,11.162 0.17062,0.65241 0.0645,1.18621 -0.23575,1.18621 -0.30028,0 -0.54596,1.86886 -0.54596,4.15302 0,10.79129 6.37835,20.17021 16.26353,23.91441 1.49082,0.56467 2.91893,1.20782 3.17358,1.4292 0.25464,0.22139 -1.22801,4.17875 -3.29479,8.79413 l -3.75777,8.39159 -0.25896,13.85412 c -0.14243,7.61977 -0.22508,16.56471 -0.18366,19.87765 0.46964,37.56899 0.13649,34.25676 3.93253,39.09769 1.84539,2.35336 1.84612,2.35737 2.09432,11.5953 l 0.24829,9.24113 h -21.1556 -21.155589 z"
     id="path145" />
  <path
     style="fill:#fff6d5;fill-opacity:1;stroke-width:0.602353"
     d="m 206.23059,494.15529 c 0.20706,-1.03529 0.37647,-5.10117 0.37647,-9.03529 v -7.15294 H 256 305.39294 V 485.12 c 0,3.93412 0.16941,8 0.37647,9.03529 l 0.37647,1.88236 H 256 205.85412 Z"
     id="path147" />
</svg>
