<svg id="Capa_1" enable-background="new 0 0 508 508" height="512" viewBox="0 0 508 508" width="512" xmlns="http://www.w3.org/2000/svg"><g><path d="m488 204h-20c0-5.523-4.477-10-10-10h-408c-5.523 0-10 4.477-10 10h-20c-11.028 0-20 8.972-20 20v60c0 11.028 8.972 20 20 20h20c0 5.523 4.477 10 10 10h158.642c5.319 0 9.974-4 10.334-9.307.396-5.822-4.237-10.693-9.976-10.693h-94v-80h278v80h-93.642c-5.318 0-9.973 4-10.334 9.306-.397 5.821 4.236 10.694 9.976 10.694h159c5.523 0 10-4.477 10-10h20c11.028 0 20-8.972 20-20v-60c0-11.028-8.972-20-20-20zm-468 80v-60h20v60zm75 10h-35v-80h35zm353 0h-35v-80h35zm40-10h-20v-60h20zm-224 20c0 5.51-4.49 10-10 10s-10-4.49-10-10 4.49-10 10-10 10 4.49 10 10zm-10 174c-5.523 0-10-4.477-10-10v-52c0-5.523 4.477-10 10-10s10 4.477 10 10v52c0 5.523-4.477 10-10 10zm0-376c-5.523 0-10-4.477-10-10v-52c0-5.523 4.477-10 10-10s10 4.477 10 10v52c0 5.523-4.477 10-10 10zm-162.635 308.635c-3.905-3.905-3.905-10.237 0-14.143l29.698-29.698c3.905-3.905 10.237-3.905 14.143 0s3.905 10.237 0 14.143l-29.698 29.698c-3.993 3.993-10.272 3.871-14.143 0zm281.429-43.841c3.905-3.905 10.237-3.905 14.143 0l29.698 29.698c3.905 3.905 3.905 10.237 0 14.143s-10.237 3.905-14.143 0l-29.698-29.698c-3.993-3.993-3.871-10.272 0-14.143zm43.841-269.429c3.905 3.905 3.905 10.237 0 14.143l-29.698 29.698c-3.905 3.905-10.237 3.905-14.143 0s-3.905-10.237 0-14.143l29.698-29.698c3.993-3.993 10.272-3.871 14.143 0zm-281.429 43.841c-3.905 3.905-10.237 3.905-14.143 0l-29.698-29.698c-3.905-3.905-3.905-10.237 0-14.143s10.237-3.905 14.143 0l29.698 29.698c3.993 3.993 3.871 10.272 0 14.143z"/></g></svg>