<?xml version="1.0" encoding="UTF-8"?>
<!DOCTYPE svg PUBLIC "-//W3C//DTD SVG 1.1//EN" "http://www.w3.org/Graphics/SVG/1.1/DTD/svg11.dtd">
<svg version="1.1" xmlns="http://www.w3.org/2000/svg" xmlns:xlink="http://www.w3.org/1999/xlink" x="0" y="0" width="405" height="429" viewBox="0, 0, 405, 429">
  <g id="Layer_1">
    <path d="M383.953,378.1 L402.098,378.1 L402.098,381.235 L383.953,381.235 z M383.953,361.856 L402.098,361.856 L402.098,364.992 L383.953,364.992 z" fill="#E9A62D"/>
    <path d="M230.098,185.382 C228.74,177.833 225.007,171.738 220.078,167.44 C214.745,162.79 208.005,160.246 201.36,160.246 C193.069,160.246 183.905,164.18 176.914,170.42 C170.545,176.102 166.042,183.655 165.761,191.799 C165.721,192.976 165.701,194.317 165.701,195.817 C165.701,216.032 171.154,232.669 182.4,244.389 C193.676,256.14 210.874,263.081 234.348,263.888 C235.712,263.935 237.277,263.959 239.047,263.959 C265.385,263.959 288.423,256.459 305.585,242.842 C322.334,229.552 333.521,210.398 336.73,186.676 C337.521,180.828 337.908,175.077 337.908,169.442 C337.908,141.171 327.988,116.758 310.62,98.419 C293.191,80.016 268.244,67.674 238.259,63.617 C231.176,62.659 223.773,62.165 216.079,62.165 C176.638,62.165 139.306,76.505 110.621,99.981 C82.063,123.35 62.093,155.754 57.184,192.039 C56.176,199.487 55.686,206.862 55.686,214.136 C55.686,253.325 70.157,288.491 94.957,315.251 C119.804,342.061 155.024,360.466 196.462,366.073 C205.189,367.253 214.232,367.867 223.553,367.867 L223.563,367.876 L364.007,368.863 L363.985,374.229 L223.553,373.241 L223.553,373.251 C214.065,373.251 204.781,372.618 195.747,371.396 C153.03,365.617 116.693,346.608 91.022,318.911 C65.307,291.161 50.299,254.721 50.299,214.136 C50.299,206.699 50.812,199.085 51.862,191.323 C56.961,153.625 77.646,120.011 107.212,95.815 C136.824,71.583 175.363,56.779 216.079,56.779 C223.938,56.779 231.582,57.295 238.974,58.294 C270.21,62.52 296.256,75.439 314.513,94.716 C332.832,114.059 343.294,139.748 343.294,169.442 C343.294,175.241 342.887,181.23 342.054,187.391 C338.647,212.563 326.749,232.91 308.93,247.05 C290.813,261.424 266.611,269.344 239.047,269.344 C237.575,269.344 235.952,269.315 234.179,269.252 C209.202,268.393 190.769,260.869 178.531,248.113 C166.263,235.33 160.316,217.423 160.316,195.817 C160.316,194.614 160.342,193.217 160.398,191.63 C160.733,181.879 165.957,172.988 173.336,166.402 C181.269,159.324 191.769,154.86 201.36,154.86 C209.268,154.86 217.281,157.88 223.612,163.4 C229.407,168.452 233.788,175.599 235.379,184.436 L230.098,185.382" fill="#0B0B09"/>
    <path d="M220.281,426.192 C227.382,426.309 233.518,403.406 233.635,396.304 C233.688,393.084 232.552,390.122 230.634,387.834 C228.35,385.111 227.259,382.036 227.316,378.482 L227.365,375.579 L214.865,375.373 L214.817,378.277 C214.76,381.832 213.567,384.869 211.195,387.514 C209.202,389.737 207.971,392.662 207.917,395.88 C207.802,402.984 213.18,426.077 220.281,426.192" fill="#F3B528"/>
    <path d="M224.159,424.065 C229.48,418.239 233.54,402.068 233.635,396.304 C233.688,393.084 232.552,390.122 230.634,387.834 C228.35,385.111 227.259,382.036 227.316,378.482 L227.365,375.579 L214.865,375.373 L214.857,375.876 L223.406,376.016 L223.352,379.36 C223.284,383.454 224.366,386.991 226.645,390.12 C228.558,392.75 229.686,396.159 229.624,399.868 C229.545,404.671 227.376,415.758 224.159,424.065" fill="#E9A62D"/>
    <path d="M218.961,425.02 C221.18,425.057 221.795,418.939 220.333,411.355 C218.87,403.771 215.884,397.593 213.664,397.555 C211.445,397.52 210.83,403.638 212.292,411.224 C213.755,418.808 216.74,424.984 218.961,425.02" fill="#F8C63B"/>
    <path d="M212.769,380.548 L229.292,380.821 L229.51,367.532 C229.584,362.987 225.928,359.208 221.384,359.132 C216.841,359.059 213.061,362.715 212.986,367.26 L212.769,380.548" fill="#171716"/>
    <path d="M213.198,380.556 L225.196,380.753 L225.382,369.367 C225.438,366.068 222.782,363.325 219.482,363.27 C216.185,363.216 213.44,365.87 213.386,369.169 L213.198,380.556" fill="#2B2C2A"/>
    <path d="M213.739,380.566 L223.145,380.719 L223.292,371.792 C223.334,369.204 221.253,367.054 218.665,367.01 C216.079,366.968 213.927,369.05 213.885,371.636 L213.739,380.566" fill="#3F3F3D"/>
    <path d="M127.46,406.977 C133.973,409.811 148.431,391.02 151.267,384.507 C152.552,381.555 152.641,378.383 151.748,375.535 C150.684,372.141 150.857,368.885 152.276,365.626 C152.662,364.739 153.048,363.851 153.434,362.963 C149.614,361.301 145.792,359.637 141.972,357.975 C141.585,358.862 141.2,359.75 140.813,360.637 C139.394,363.895 137.129,366.243 133.922,367.776 C131.228,369.063 128.967,371.292 127.682,374.243 C124.848,380.754 120.948,404.143 127.46,406.977" fill="#E77F5E"/>
    <path d="M131.857,406.502 C139.009,403.165 148.966,389.793 151.266,384.507 C152.551,381.555 152.641,378.383 151.748,375.535 C150.684,372.141 150.857,368.885 152.276,365.626 C152.662,364.739 153.048,363.851 153.434,362.963 C149.614,361.301 145.792,359.637 141.972,357.973 C141.906,358.127 141.839,358.283 141.772,358.435 C144.385,359.573 146.999,360.71 149.611,361.848 C149.166,362.87 148.72,363.891 148.276,364.914 C146.643,368.667 146.284,372.349 147.185,376.113 C147.942,379.275 147.675,382.856 146.195,386.256 C144.278,390.663 138.016,400.067 131.857,406.502" fill="#E2603C"/>
    <path d="M126.691,405.389 C128.727,406.274 131.643,400.862 133.205,393.296 C134.766,385.733 134.381,378.881 132.345,377.998 C130.31,377.11 127.393,382.524 125.832,390.087 C124.27,397.653 124.656,404.502 126.691,405.389" fill="#ED9D80"/>
    <path d="M138.048,361.948 C143.099,364.145 148.15,366.344 153.2,368.542 C154.969,364.479 156.737,360.417 158.504,356.354 C160.319,352.189 158.393,347.295 154.227,345.483 L154.226,345.483 C150.059,343.667 145.167,345.592 143.353,349.761 C141.585,353.824 139.817,357.885 138.048,361.948" fill="#171716"/>
    <path d="M138.444,362.12 C142.111,363.716 145.779,365.313 149.445,366.909 C150.96,363.427 152.475,359.948 153.99,356.467 C155.307,353.442 153.91,349.889 150.884,348.572 L150.883,348.572 C147.857,347.254 144.305,348.653 142.988,351.678 C141.473,355.159 139.958,358.638 138.444,362.12" fill="#2B2C2A"/>
    <path d="M138.937,362.335 C141.814,363.585 144.689,364.838 147.564,366.088 C148.751,363.36 149.94,360.63 151.127,357.901 C152.16,355.53 151.064,352.746 148.692,351.71 L148.691,351.71 C146.319,350.679 143.535,351.775 142.501,354.148 C141.313,356.876 140.125,359.606 138.937,362.335" fill="#3F3F3D"/>
    <path d="M49.505,351.699 C54.278,356.959 75.181,345.767 80.441,340.996 C82.826,338.832 84.211,335.977 84.566,333.011 C84.991,329.484 86.488,326.584 89.12,324.197 C89.836,323.546 90.554,322.895 91.271,322.245 C88.47,319.16 85.67,316.072 82.871,312.988 C82.153,313.637 81.436,314.288 80.72,314.938 C78.087,317.325 75.058,318.535 71.504,318.616 C68.519,318.681 65.543,319.783 63.158,321.947 C57.898,326.718 44.732,346.439 49.505,351.699" fill="#BFD451"/>
    <path d="M53.708,353.074 C61.601,352.97 76.172,344.869 80.441,340.996 C82.826,338.832 84.21,335.977 84.566,333.011 C84.991,329.484 86.488,326.584 89.12,324.197 C89.836,323.546 90.554,322.897 91.27,322.245 C88.47,319.16 85.67,316.072 82.871,312.988 C82.747,313.1 82.622,313.212 82.498,313.325 C84.413,315.434 86.328,317.546 88.243,319.656 C87.418,320.406 86.592,321.155 85.767,321.903 C82.735,324.653 80.895,327.864 80.169,331.665 C79.56,334.86 77.846,338.014 75.099,340.506 C71.54,343.736 61.968,349.736 53.708,353.074" fill="#AECA39"/>
    <path d="M49.456,349.934 C50.948,351.58 55.831,347.842 60.363,341.586 C64.895,335.334 67.359,328.929 65.868,327.284 C64.376,325.64 59.492,329.377 54.96,335.633 C50.429,341.886 47.964,348.29 49.456,349.934" fill="#C9DA63"/>
    <path d="M77.661,314.997 C81.362,319.077 85.063,323.156 88.764,327.236 C92.045,324.257 95.327,321.281 98.608,318.303 C101.974,315.251 102.229,309.998 99.175,306.631 L99.174,306.631 C96.122,303.266 90.87,303.011 87.505,306.066 C84.223,309.042 80.942,312.019 77.661,314.997" fill="#171716"/>
    <path d="M77.951,315.316 C80.638,318.278 83.325,321.241 86.013,324.203 C88.823,321.653 91.635,319.1 94.447,316.55 C96.89,314.334 97.075,310.519 94.858,308.076 C92.641,305.631 88.827,305.448 86.384,307.665 C83.573,310.216 80.761,312.766 77.951,315.316" fill="#2B2C2A"/>
    <g>
      <path d="M78.312,315.715 C80.419,318.038 82.527,320.359 84.634,322.682 C86.838,320.682 89.042,318.683 91.247,316.683 C93.162,314.944 93.309,311.954 91.57,310.038 L91.569,310.038 C89.831,308.123 86.841,307.977 84.924,309.716 C82.721,311.716 80.517,313.715 78.312,315.715" fill="#3F3F3D"/>
      <path d="M3.546,265.081 C5.189,271.991 28.897,272.276 35.807,270.633 C38.94,269.889 41.531,268.055 43.273,265.632 C45.347,262.745 48.057,260.927 51.515,260.107 C52.457,259.884 53.398,259.659 54.341,259.435 C53.376,255.381 52.414,251.328 51.45,247.274 C50.508,247.497 49.567,247.72 48.624,247.945 C45.167,248.765 41.93,248.363 38.779,246.718 C36.132,245.336 32.994,244.865 29.86,245.61 C22.951,247.251 1.904,258.171 3.546,265.081" fill="#8F8EB9"/>
    </g>
    <path d="M6.565,268.313 C13.527,272.03 30.199,271.966 35.807,270.633 C38.94,269.889 41.531,268.055 43.273,265.632 C45.347,262.747 48.057,260.927 51.515,260.107 C52.456,259.884 53.398,259.659 54.34,259.435 C53.376,255.381 52.414,251.328 51.45,247.274 C51.287,247.312 51.124,247.351 50.961,247.389 C51.62,250.162 52.278,252.934 52.937,255.708 C51.853,255.965 50.768,256.221 49.684,256.481 C45.702,257.426 42.541,259.349 40.071,262.331 C37.996,264.835 34.972,266.771 31.364,267.627 C26.689,268.738 15.411,269.376 6.565,268.313" fill="#7171A6"/>
    <path d="M4.355,263.512 C4.868,265.671 10.949,264.755 17.936,261.463 C24.923,258.171 30.171,253.752 29.657,251.592 C29.145,249.432 23.064,250.349 16.077,253.64 C9.089,256.932 3.841,261.352 4.355,263.512" fill="#BEBAD2"/>
    <path d="M45.917,246.52 C47.19,251.878 48.463,257.237 49.737,262.596 C54.048,261.573 58.358,260.548 62.669,259.525 C67.09,258.473 69.848,253.997 68.798,249.576 L68.798,249.575 C67.746,245.153 63.27,242.396 58.848,243.447 C54.538,244.471 50.227,245.496 45.917,246.52" fill="#171716"/>
    <path d="M46.017,246.94 C46.941,250.832 47.866,254.721 48.79,258.612 C52.484,257.736 56.176,256.859 59.87,255.981 C63.08,255.218 65.083,251.967 64.319,248.757 L64.319,248.756 C63.557,245.546 60.306,243.544 57.096,244.307 C53.402,245.184 49.709,246.062 46.017,246.94" fill="#2B2C2A"/>
    <path d="M46.141,247.463 C46.867,250.514 47.591,253.565 48.317,256.617 C51.212,255.928 54.107,255.241 57.003,254.553 C59.52,253.955 61.09,251.406 60.492,248.888 C59.894,246.372 57.346,244.801 54.828,245.399 C51.932,246.087 49.037,246.776 46.141,247.463" fill="#3F3F3D"/>
    <path d="M2.071,168.999 C0.61,175.949 21.936,186.313 28.887,187.774 C32.04,188.435 35.164,187.882 37.773,186.431 C40.88,184.705 44.105,184.217 47.584,184.948 C48.531,185.147 49.479,185.346 50.426,185.544 C51.282,181.466 52.139,177.388 52.996,173.31 C52.048,173.111 51.102,172.912 50.154,172.712 C46.676,171.982 43.919,170.238 41.77,167.406 C39.965,165.028 37.327,163.264 34.176,162.602 C27.225,161.141 3.531,162.047 2.071,168.999" fill="#F3B528"/>
    <path d="M3.425,173.209 C8.138,179.539 23.247,186.588 28.888,187.773 C32.04,188.435 35.164,187.882 37.773,186.431 C40.88,184.705 44.106,184.216 47.584,184.948 C48.532,185.147 49.479,185.346 50.426,185.544 C51.282,181.466 52.139,177.388 52.996,173.31 C52.832,173.276 52.668,173.242 52.504,173.207 C51.918,175.996 51.331,178.786 50.746,181.574 C49.655,181.344 48.564,181.116 47.474,180.886 C43.468,180.044 39.789,180.437 36.285,182.081 C33.34,183.46 29.778,183.922 26.15,183.16 C21.448,182.171 10.973,177.94 3.425,173.209" fill="#E9A62D"/>
    <path d="M3.472,167.923 C3.016,170.096 8.906,171.859 16.631,171.86 C24.354,171.861 30.985,170.1 31.442,167.927 C31.899,165.754 26.007,163.992 18.284,163.992 C10.56,163.99 3.929,165.751 3.472,167.923" fill="#F8C63B"/>
    <path d="M48.312,170.271 C47.179,175.662 46.047,181.051 44.914,186.442 C49.251,187.353 53.586,188.263 57.922,189.174 C62.369,190.109 66.772,187.236 67.706,182.789 C68.641,178.34 65.767,173.938 61.32,173.003 C56.983,172.092 52.648,171.182 48.312,170.271" fill="#171716"/>
    <path d="M48.223,170.692 C47.401,174.607 46.579,178.52 45.756,182.435 C49.471,183.215 53.185,183.996 56.901,184.776 C60.129,185.455 63.327,183.368 64.005,180.138 C64.683,176.909 62.597,173.712 59.368,173.034 C55.652,172.253 51.937,171.473 48.223,170.692" fill="#2B2C2A"/>
    <path d="M48.112,171.22 C47.467,174.289 46.823,177.358 46.178,180.426 C49.091,181.039 52.003,181.651 54.917,182.262 C57.448,182.794 59.955,181.159 60.486,178.626 C61.019,176.094 59.383,173.587 56.85,173.055 C53.937,172.444 51.025,171.832 48.112,171.22" fill="#3F3F3D"/>
    <path d="M45.89,82.252 C41.399,87.754 55.58,106.758 61.081,111.248 C63.577,113.284 66.606,114.228 69.591,114.139 C73.144,114.033 76.232,115.081 78.986,117.329 C79.737,117.94 80.486,118.553 81.236,119.165 C83.872,115.936 86.505,112.708 89.14,109.479 C88.391,108.867 87.641,108.255 86.891,107.643 C84.137,105.396 82.49,102.58 81.882,99.078 C81.372,96.136 79.839,93.357 77.344,91.32 C71.841,86.83 50.381,76.749 45.89,82.252" fill="#E77F5E"/>
    <path d="M45.158,86.613 C46.436,94.401 56.616,107.604 61.081,111.249 C63.577,113.284 66.606,114.228 69.591,114.139 C73.144,114.033 76.232,115.081 78.986,117.329 C79.737,117.94 80.486,118.553 81.236,119.165 C83.872,115.936 86.505,112.708 89.14,109.479 C89.011,109.374 88.88,109.267 88.751,109.161 C86.949,111.369 85.147,113.577 83.345,115.785 C82.481,115.081 81.618,114.376 80.754,113.671 C77.584,111.083 74.135,109.742 70.267,109.591 C67.018,109.464 63.643,108.238 60.769,105.893 C57.047,102.855 49.687,94.285 45.158,86.613" fill="#E2603C"/>
    <path d="M47.627,81.94 C46.225,83.661 50.646,87.932 57.507,91.482 C64.367,95.032 71.066,96.515 72.47,94.794 C73.873,93.074 69.45,88.803 62.59,85.253 C55.731,81.703 49.032,80.22 47.627,81.94" fill="#ED9D80"/>
    <path d="M86.377,104.627 C82.894,108.895 79.412,113.162 75.929,117.429 C79.361,120.231 82.794,123.032 86.227,125.833 C89.748,128.706 94.978,128.177 97.851,124.656 L97.852,124.656 C100.725,121.135 100.196,115.904 96.675,113.03 C93.242,110.23 89.81,107.428 86.377,104.627" fill="#171716"/>
    <path d="M86.104,104.961 C83.575,108.06 81.046,111.158 78.518,114.257 C81.458,116.657 84.399,119.057 87.341,121.457 C89.897,123.542 93.695,123.158 95.781,120.602 L95.782,120.601 C97.868,118.045 97.482,114.247 94.927,112.161 C91.986,109.76 89.044,107.361 86.104,104.961" fill="#2B2C2A"/>
    <path d="M85.763,105.378 C83.781,107.808 81.798,110.238 79.815,112.667 C82.122,114.549 84.427,116.43 86.733,118.312 C88.737,119.948 91.715,119.647 93.352,117.642 C94.987,115.637 94.686,112.659 92.681,111.023 C90.375,109.142 88.07,107.26 85.763,105.378" fill="#3F3F3D"/>
    <path d="M121.625,24.092 C115.286,27.296 120.52,50.421 123.723,56.76 C125.175,59.634 127.56,61.728 130.324,62.859 C133.613,64.206 136.009,66.419 137.613,69.592 C138.049,70.455 138.486,71.319 138.922,72.183 C142.641,70.303 146.361,68.424 150.08,66.545 C149.643,65.681 149.207,64.817 148.77,63.954 C147.167,60.781 146.807,57.539 147.674,54.092 C148.404,51.197 148.132,48.035 146.679,45.16 C143.476,38.821 127.964,20.889 121.625,24.092" fill="#BFD451"/>
    <path d="M119.184,27.78 C117.187,35.415 121.125,51.615 123.723,56.76 C125.175,59.634 127.56,61.728 130.324,62.859 C133.613,64.206 136.009,66.419 137.613,69.591 C138.049,70.455 138.486,71.319 138.922,72.182 C142.641,70.303 146.361,68.424 150.08,66.545 C150.004,66.395 149.928,66.246 149.853,66.096 C147.31,67.381 144.765,68.666 142.222,69.952 C141.719,68.957 141.217,67.962 140.714,66.967 C138.869,63.314 136.263,60.687 132.791,58.978 C129.873,57.542 127.287,55.049 125.614,51.74 C123.448,47.452 120.206,36.629 119.184,27.78" fill="#AECA39"/>
    <path d="M123.339,24.513 C121.358,25.515 123.664,31.216 128.489,37.247 C133.314,43.277 138.833,47.355 140.814,46.354 C142.796,45.352 140.491,39.652 135.666,33.621 C130.839,27.59 125.322,23.513 123.339,24.513" fill="#C9DA63"/>
    <path d="M149.526,60.988 C144.61,63.473 139.694,65.957 134.778,68.44 C136.776,72.396 138.774,76.349 140.773,80.304 C142.821,84.36 147.817,86.001 151.873,83.952 C155.929,81.902 157.57,76.907 155.521,72.852 C153.523,68.897 151.525,64.943 149.526,60.988" fill="#171716"/>
    <path d="M149.141,61.183 C145.572,62.987 142.002,64.791 138.432,66.593 C140.144,69.982 141.856,73.37 143.568,76.758 C145.056,79.703 148.683,80.895 151.627,79.407 L151.628,79.407 C154.573,77.918 155.765,74.292 154.277,71.346 C152.565,67.959 150.853,64.571 149.141,61.183" fill="#2B2C2A"/>
    <g>
      <path d="M148.661,61.426 C145.862,62.84 143.062,64.254 140.264,65.669 C141.606,68.325 142.949,70.982 144.292,73.638 C145.458,75.947 148.3,76.881 150.611,75.715 L150.611,75.714 C152.919,74.548 153.854,71.704 152.688,69.395 C151.345,66.739 150.002,64.082 148.661,61.426" fill="#3F3F3D"/>
      <path d="M215.061,1.711 C207.961,1.926 202.905,25.091 203.121,32.19 C203.218,35.409 204.489,38.316 206.515,40.511 C208.924,43.125 210.155,46.145 210.265,49.698 C210.292,50.666 210.323,51.632 210.352,52.601 C214.518,52.474 218.683,52.347 222.848,52.222 C222.816,51.253 222.789,50.286 222.759,49.318 C222.651,45.766 223.698,42.677 225.944,39.922 C227.832,37.607 228.926,34.629 228.829,31.41 C228.613,24.311 222.16,1.495 215.061,1.711" fill="#8F8EB9"/>
    </g>
    <path d="M211.288,4.016 C206.242,10.086 202.946,26.429 203.119,32.19 C203.218,35.409 204.489,38.316 206.515,40.511 C208.924,43.125 210.155,46.145 210.265,49.698 C210.292,50.666 210.322,51.632 210.352,52.601 C214.518,52.474 218.683,52.347 222.848,52.222 C222.842,52.054 222.837,51.886 222.832,51.718 C219.982,51.805 217.136,51.891 214.286,51.978 C214.252,50.864 214.219,49.75 214.186,48.635 C214.061,44.544 212.814,41.061 210.393,38.041 C208.358,35.503 207.07,32.15 206.96,28.444 C206.814,23.642 208.463,12.465 211.288,4.016" fill="#7171A6"/>
    <path d="M216.436,2.82 C214.217,2.886 213.889,9.027 215.705,16.534 C217.521,24.042 220.79,30.073 223.011,30.005 C225.229,29.938 225.556,23.798 223.742,16.291 C221.926,8.783 218.654,2.752 216.436,2.82" fill="#BEBAD2"/>
    <path d="M224.701,46.954 C219.195,47.12 213.689,47.288 208.183,47.455 C208.317,51.882 208.452,56.311 208.586,60.74 C208.724,65.282 212.554,68.886 217.095,68.748 C221.639,68.61 225.241,64.781 225.103,60.239 C224.97,55.811 224.835,51.382 224.701,46.954" fill="#171716"/>
    <path d="M224.27,46.966 C220.271,47.087 216.273,47.21 212.276,47.331 C212.393,51.124 212.507,54.919 212.62,58.712 C212.721,62.01 215.502,64.627 218.8,64.527 C222.098,64.427 224.714,61.647 224.613,58.349 C224.5,54.554 224.384,50.761 224.27,46.966" fill="#2B2C2A"/>
    <path d="M223.73,46.983 C220.595,47.078 217.461,47.173 214.326,47.269 C214.417,50.243 214.508,53.218 214.599,56.193 C214.677,58.779 216.856,60.831 219.442,60.752 C222.029,60.673 224.079,58.494 224.001,55.907 C223.91,52.933 223.82,49.958 223.73,46.983" fill="#3F3F3D"/>
    <path d="M310.182,23.607 C303.822,20.441 288.419,38.465 285.253,44.823 C283.817,47.706 283.565,50.869 284.311,53.76 C285.198,57.203 284.857,60.447 283.273,63.629 C282.842,64.495 282.411,65.361 281.979,66.228 C285.711,68.085 289.44,69.942 293.17,71.799 C293.603,70.932 294.034,70.066 294.465,69.2 C296.05,66.019 298.432,63.791 301.713,62.424 C304.471,61.277 306.843,59.169 308.277,56.287 C311.442,49.928 316.539,26.772 310.182,23.607" fill="#F3B528"/>
    <path d="M305.767,23.856 C298.452,26.819 287.821,39.663 285.253,44.823 C283.817,47.706 283.564,50.869 284.311,53.76 C285.198,57.202 284.857,60.447 283.273,63.628 C282.842,64.495 282.411,65.361 281.979,66.228 C285.711,68.085 289.44,69.942 293.17,71.799 C293.245,71.649 293.319,71.499 293.395,71.35 C290.844,70.079 288.292,68.809 285.74,67.539 C286.237,66.541 286.734,65.543 287.231,64.545 C289.056,60.881 289.603,57.222 288.896,53.416 C288.303,50.219 288.755,46.657 290.407,43.337 C292.548,39.036 299.283,29.966 305.767,23.856" fill="#E9A62D"/>
    <path d="M310.867,25.233 C308.882,24.243 305.691,29.5 303.741,36.974 C301.794,44.448 301.825,51.309 303.813,52.298 C305.801,53.288 308.991,48.032 310.939,40.557 C312.888,33.083 312.856,26.223 310.867,25.233" fill="#F8C63B"/>
    <path d="M297.293,68.033 C292.362,65.578 287.431,63.123 282.5,60.668 C280.525,64.634 278.552,68.601 276.577,72.567 C274.551,76.634 276.222,81.62 280.291,83.645 C284.359,85.671 289.344,84 291.368,79.931 C293.345,75.966 295.318,71.999 297.293,68.033" fill="#171716"/>
    <path d="M296.907,67.841 C293.327,66.058 289.746,64.276 286.167,62.494 C284.475,65.891 282.783,69.29 281.091,72.688 C279.62,75.641 280.835,79.261 283.787,80.731 C286.742,82.202 290.36,80.989 291.832,78.034 C293.522,74.637 295.215,71.239 296.907,67.841" fill="#2B2C2A"/>
    <path d="M296.425,67.601 C293.618,66.203 290.811,64.805 288.003,63.408 C286.677,66.072 285.35,68.736 284.023,71.4 C282.87,73.717 283.822,76.555 286.138,77.708 L286.139,77.708 C288.454,78.861 291.292,77.909 292.446,75.594 C293.771,72.929 295.098,70.264 296.425,67.601" fill="#3F3F3D"/>
    <path d="M381.78,96.598 C378.632,90.231 355.462,95.266 349.096,98.414 C346.208,99.841 344.094,102.208 342.939,104.961 C341.564,108.238 339.33,110.617 336.145,112.192 C335.277,112.621 334.41,113.05 333.541,113.479 C335.388,117.214 337.236,120.95 339.083,124.686 C339.952,124.256 340.819,123.826 341.687,123.398 C344.872,121.822 348.117,121.49 351.557,122.387 C354.446,123.141 357.61,122.897 360.496,121.47 C366.863,118.322 384.928,102.964 381.78,96.598" fill="#E77F5E"/>
    <path d="M378.114,94.125 C370.496,92.061 354.263,95.858 349.096,98.414 C346.208,99.841 344.094,102.208 342.939,104.961 C341.564,108.239 339.33,110.617 336.145,112.192 C335.277,112.621 334.41,113.05 333.541,113.48 C335.39,117.214 337.236,120.95 339.083,124.686 C339.233,124.61 339.384,124.536 339.535,124.463 C338.271,121.907 337.009,119.353 335.744,116.798 C336.743,116.305 337.743,115.81 338.741,115.316 C342.411,113.501 345.06,110.919 346.8,107.46 C348.261,104.556 350.775,101.992 354.099,100.348 C358.406,98.218 369.255,95.07 378.114,94.125" fill="#E2603C"/>
    <path d="M381.344,98.309 C380.359,96.318 374.64,98.574 368.566,103.347 C362.495,108.121 358.37,113.603 359.354,115.594 C360.339,117.584 366.059,115.327 372.13,110.555 C378.203,105.781 382.328,100.298 381.344,98.309" fill="#ED9D80"/>
    <path d="M344.644,124.179 C342.203,119.242 339.762,114.305 337.319,109.367 C333.35,111.331 329.376,113.294 325.406,115.259 C321.333,117.273 319.646,122.254 321.662,126.328 C323.676,130.401 328.657,132.086 332.73,130.071 C336.702,128.107 340.674,126.143 344.644,124.179" fill="#171716"/>
    <path d="M344.453,123.792 C342.682,120.208 340.908,116.623 339.135,113.038 C335.731,114.72 332.33,116.403 328.928,118.085 C325.97,119.548 324.746,123.165 326.209,126.122 L326.209,126.123 C327.671,129.081 331.288,130.303 334.246,128.841 C337.649,127.158 341.052,125.475 344.453,123.792" fill="#2B2C2A"/>
    <path d="M344.214,123.311 C342.825,120.499 341.435,117.688 340.044,114.876 C337.377,116.196 334.709,117.515 332.04,118.835 C329.722,119.981 328.762,122.817 329.909,125.136 C331.056,127.456 333.892,128.415 336.212,127.268 C338.879,125.949 341.547,124.629 344.214,123.311" fill="#3F3F3D"/>
    <path d="M396.358,196.632 C397.449,189.614 375.606,180.391 368.588,179.3 C365.405,178.805 362.315,179.524 359.785,181.109 C356.774,182.999 353.578,183.656 350.067,183.11 C349.109,182.961 348.153,182.813 347.197,182.664 C346.558,186.782 345.917,190.9 345.276,195.016 C346.233,195.166 347.189,195.314 348.147,195.463 C351.658,196.009 354.503,197.606 356.8,200.32 C358.728,202.599 361.454,204.221 364.637,204.716 C371.655,205.806 395.267,203.651 396.358,196.632" fill="#BFD451"/>
    <path d="M394.784,192.5 C389.743,186.427 374.283,180.186 368.588,179.3 C365.405,178.805 362.315,179.524 359.785,181.109 C356.774,182.999 353.579,183.656 350.067,183.11 C349.109,182.961 348.153,182.813 347.197,182.664 C346.558,186.782 345.917,190.9 345.276,195.016 C345.442,195.043 345.608,195.068 345.773,195.094 C346.211,192.279 346.65,189.462 347.088,186.646 C348.189,186.817 349.291,186.989 350.393,187.16 C354.436,187.789 358.089,187.202 361.503,185.376 C364.37,183.842 367.9,183.193 371.566,183.762 C376.313,184.5 386.997,188.172 394.784,192.5" fill="#AECA39"/>
    <path d="M395.017,197.779 C395.357,195.585 389.381,194.137 381.669,194.543 C373.955,194.951 367.426,197.059 367.085,199.253 C366.744,201.448 372.721,202.896 380.433,202.489 C388.146,202.082 394.676,199.973 395.017,197.779" fill="#C9DA63"/>
    <path d="M350.115,197.805 C350.961,192.362 351.808,186.92 352.653,181.476 C348.275,180.796 343.897,180.116 339.52,179.435 C335.028,178.738 330.784,181.839 330.087,186.331 C329.389,190.821 332.491,195.066 336.98,195.763 C341.358,196.444 345.737,197.125 350.115,197.805" fill="#171716"/>
    <path d="M350.182,197.378 C350.795,193.426 351.411,189.474 352.024,185.523 C348.273,184.94 344.523,184.357 340.772,183.773 C337.512,183.266 334.429,185.519 333.923,188.78 C333.416,192.041 335.668,195.123 338.929,195.629 C342.68,196.212 346.432,196.796 350.182,197.378" fill="#2B2C2A"/>
    <path d="M350.264,196.847 C350.745,193.748 351.229,190.649 351.709,187.55 C348.769,187.093 345.827,186.636 342.887,186.179 C340.33,185.782 337.913,187.548 337.517,190.104 L337.517,190.105 C337.118,192.662 338.885,195.079 341.441,195.475 C344.382,195.932 347.323,196.39 350.264,196.847" fill="#3F3F3D"/>
    <path d="M343.886,285.751 C349.244,281.089 338.485,259.959 333.821,254.603 C331.707,252.173 328.882,250.731 325.925,250.313 C322.406,249.817 319.539,248.26 317.205,245.58 C316.568,244.849 315.933,244.119 315.299,243.389 C312.155,246.126 309.012,248.861 305.869,251.597 C306.505,252.328 307.14,253.057 307.775,253.788 C310.109,256.468 311.255,259.523 311.263,263.078 C311.268,266.063 312.307,269.062 314.421,271.49 C319.084,276.847 338.528,290.417 343.886,285.751" fill="#8F8EB9"/>
    <path d="M345.346,281.579 C345.405,273.686 337.606,258.95 333.821,254.603 C331.707,252.173 328.881,250.731 325.925,250.313 C322.406,249.817 319.539,248.26 317.205,245.58 C316.568,244.85 315.933,244.119 315.299,243.389 C312.155,246.126 309.012,248.861 305.869,251.597 C305.979,251.723 306.088,251.85 306.199,251.976 C308.349,250.105 310.499,248.234 312.647,246.363 C313.38,247.204 314.111,248.044 314.842,248.885 C317.531,251.972 320.701,253.877 324.488,254.681 C327.67,255.356 330.788,257.137 333.223,259.934 C336.377,263.559 342.18,273.251 345.346,281.579" fill="#7171A6"/>
    <path d="M342.121,285.764 C343.796,284.308 340.16,279.348 333.999,274.688 C327.84,270.029 321.489,267.433 319.813,268.891 C318.139,270.349 321.774,275.308 327.936,279.967 C334.095,284.626 340.445,287.223 342.121,285.764" fill="#BEBAD2"/>
    <path d="M307.771,256.846 C311.925,253.231 316.081,249.614 320.235,245.998 C317.326,242.656 314.417,239.314 311.508,235.971 C308.525,232.544 303.278,232.181 299.853,235.165 C296.425,238.149 296.061,243.394 299.045,246.821 C301.954,250.164 304.863,253.506 307.771,256.846" fill="#171716"/>
    <path d="M308.098,256.564 C311.112,253.937 314.13,251.312 317.146,248.686 C314.655,245.823 312.163,242.959 309.671,240.096 C307.504,237.608 303.694,237.344 301.207,239.51 C298.718,241.677 298.454,245.486 300.619,247.975 C303.111,250.837 305.605,253.7 308.098,256.564" fill="#2B2C2A"/>
    <path d="M308.504,256.209 C310.867,254.151 313.234,252.092 315.6,250.033 C313.646,247.789 311.69,245.543 309.736,243.298 C308.038,241.347 305.052,241.14 303.101,242.838 L303.101,242.839 C301.149,244.538 300.941,247.524 302.64,249.476 C304.595,251.72 306.549,253.965 308.504,256.209" fill="#3F3F3D"/>
    <path d="M249.361,323.795 C256.443,323.251 260.425,299.877 259.881,292.794 C259.634,289.584 258.228,286.739 256.104,284.64 C253.578,282.142 252.206,279.181 251.935,275.636 C251.86,274.672 251.786,273.709 251.712,272.743 C247.558,273.061 243.401,273.38 239.247,273.699 C239.32,274.665 239.396,275.63 239.469,276.594 C239.742,280.137 238.838,283.273 236.723,286.128 C234.944,288.526 233.988,291.552 234.235,294.763 C234.778,301.844 242.28,324.338 249.361,323.795" fill="#F3B528"/>
    <path d="M253.024,321.317 C257.782,315.02 260.321,298.543 259.881,292.794 C259.634,289.584 258.228,286.739 256.104,284.64 C253.578,282.142 252.206,279.181 251.935,275.636 C251.86,274.672 251.786,273.709 251.712,272.743 C247.558,273.061 243.401,273.38 239.247,273.699 C239.26,273.866 239.272,274.033 239.286,274.201 C242.127,273.983 244.969,273.764 247.811,273.545 C247.896,274.658 247.981,275.769 248.065,276.88 C248.38,280.961 249.786,284.382 252.345,287.289 C254.493,289.729 255.934,293.017 256.219,296.715 C256.586,301.505 255.454,312.747 253.024,321.317" fill="#E9A62D"/>
    <path d="M247.938,322.751 C250.151,322.581 250.193,316.431 248.034,309.016 C245.874,301.601 242.327,295.727 240.113,295.898 C237.899,296.068 237.856,302.216 240.018,309.631 C242.179,317.046 245.724,322.921 247.938,322.751" fill="#F8C63B"/>
    <path d="M237.642,279.045 C243.133,278.624 248.625,278.204 254.117,277.783 C253.778,273.365 253.438,268.946 253.1,264.529 C252.751,259.998 248.761,256.575 244.229,256.924 C239.697,257.271 236.275,261.262 236.624,265.792 C236.962,270.211 237.302,274.63 237.642,279.045" fill="#171716"/>
    <path d="M238.071,279.014 C242.058,278.708 246.046,278.402 250.034,278.095 C249.743,274.311 249.453,270.527 249.162,266.742 C248.909,263.453 246.011,260.966 242.722,261.218 C239.432,261.471 236.946,264.37 237.199,267.659 C237.489,271.444 237.78,275.23 238.071,279.014" fill="#2B2C2A"/>
    <path d="M238.608,278.972 C241.734,278.733 244.861,278.493 247.987,278.251 C247.76,275.285 247.533,272.318 247.305,269.349 C247.106,266.771 244.835,264.821 242.255,265.019 C239.676,265.218 237.726,267.49 237.924,270.071 C238.152,273.037 238.38,276.005 238.608,278.972" fill="#3F3F3D"/>
    <path d="M148.443,290.76 C153.755,295.473 173.326,282.085 178.039,276.772 C180.175,274.361 181.243,271.374 181.276,268.39 C181.316,264.835 182.49,261.792 184.847,259.13 C185.491,258.408 186.131,257.684 186.775,256.959 C183.657,254.194 180.54,251.428 177.422,248.664 C176.779,249.389 176.138,250.113 175.495,250.837 C173.136,253.497 170.255,255.025 166.732,255.491 C163.771,255.879 160.932,257.296 158.795,259.706 C154.083,265.019 143.128,286.048 148.443,290.76" fill="#E77F5E"/>
    <path d="M152.77,291.671 C160.604,290.713 174.213,281.084 178.039,276.772 C180.175,274.361 181.243,271.374 181.276,268.39 C181.316,264.835 182.491,261.792 184.849,259.13 C185.491,258.408 186.133,257.684 186.775,256.959 C183.657,254.194 180.54,251.428 177.422,248.664 C177.312,248.79 177.201,248.916 177.088,249.041 C179.221,250.931 181.354,252.822 183.485,254.713 C182.746,255.546 182.006,256.38 181.266,257.215 C178.55,260.278 177.07,263.668 176.76,267.526 C176.5,270.768 175.135,274.089 172.674,276.865 C169.487,280.458 160.621,287.46 152.77,291.671" fill="#E2603C"/>
    <path d="M148.203,289.01 C149.864,290.484 154.313,286.241 158.142,279.533 C161.971,272.824 163.727,266.191 162.066,264.718 C160.405,263.247 155.955,267.49 152.126,274.197 C148.298,280.905 146.542,287.539 148.203,289.01" fill="#ED9D80"/>
    <path d="M172.46,251.226 C176.582,254.881 180.702,258.537 184.824,262.192 C187.762,258.877 190.703,255.562 193.644,252.247 C196.658,248.847 196.343,243.599 192.944,240.584 C189.543,237.568 184.295,237.882 181.28,241.283 C178.341,244.597 175.401,247.913 172.46,251.226" fill="#171716"/>
    <path d="M172.782,251.512 C175.776,254.167 178.768,256.822 181.759,259.474 C184.279,256.634 186.797,253.795 189.316,250.955 C191.506,248.486 191.278,244.675 188.808,242.486 C186.339,240.296 182.529,240.525 180.338,242.994 C177.82,245.833 175.3,248.673 172.782,251.512" fill="#2B2C2A"/>
    <path d="M173.187,251.871 C175.532,253.95 177.878,256.031 180.225,258.112 C182.201,255.885 184.175,253.659 186.15,251.433 C187.866,249.497 187.688,246.508 185.751,244.792 C183.816,243.076 180.829,243.254 179.11,245.19 C177.135,247.417 175.16,249.644 173.187,251.871" fill="#3F3F3D"/>
    <path d="M109.248,188.379 C108.535,195.446 130.84,203.485 137.907,204.198 C141.111,204.522 144.16,203.639 146.6,201.919 C149.505,199.873 152.662,199.044 156.198,199.401 C157.16,199.499 158.124,199.596 159.086,199.693 C159.505,195.546 159.924,191.4 160.342,187.254 C159.378,187.158 158.417,187.061 157.453,186.963 C153.917,186.606 150.99,185.164 148.552,182.578 C146.504,180.405 143.695,178.93 140.491,178.608 C133.423,177.895 109.96,181.312 109.248,188.379" fill="#BFD451"/>
    <path d="M111.042,192.422 C116.4,198.214 132.172,203.62 137.907,204.198 C141.111,204.522 144.16,203.639 146.6,201.919 C149.505,199.873 152.662,199.044 156.197,199.401 C157.16,199.499 158.124,199.596 159.086,199.693 C159.504,195.546 159.923,191.4 160.342,187.254 C160.175,187.238 160.008,187.221 159.842,187.205 C159.555,190.04 159.269,192.875 158.984,195.711 C157.874,195.598 156.765,195.487 155.656,195.375 C151.583,194.964 147.966,195.746 144.657,197.751 C141.875,199.437 138.384,200.274 134.694,199.902 C129.914,199.419 119.048,196.325 111.042,192.422" fill="#AECA39"/>
    <path d="M110.526,187.163 C110.304,189.371 116.349,190.498 124.028,189.677 C131.708,188.857 138.115,186.402 138.337,184.193 C138.561,181.984 132.516,180.858 124.835,181.678 C117.156,182.498 110.749,184.953 110.526,187.163" fill="#C9DA63"/>
    <path d="M155.362,184.73 C154.809,190.209 154.255,195.69 153.702,201.171 C158.11,201.616 162.518,202.061 166.927,202.506 C171.448,202.962 175.519,199.636 175.976,195.115 C176.432,190.593 173.107,186.522 168.586,186.065 C164.178,185.62 159.769,185.174 155.362,184.73" fill="#171716"/>
    <path d="M155.318,185.159 C154.917,189.138 154.515,193.118 154.114,197.097 C157.89,197.478 161.667,197.859 165.443,198.241 C168.726,198.572 171.682,196.157 172.015,192.875 C172.346,189.591 169.931,186.634 166.648,186.303 C162.872,185.921 159.094,185.541 155.318,185.159" fill="#2B2C2A"/>
    <path d="M155.264,185.695 C154.95,188.815 154.633,191.935 154.319,195.055 C157.281,195.354 160.242,195.653 163.203,195.952 C165.777,196.211 168.095,194.319 168.355,191.745 L168.355,191.744 C168.615,189.169 166.722,186.851 164.148,186.592 C161.187,186.292 158.225,185.995 155.264,185.695" fill="#3F3F3D"/>
    <path d="M190.984,104.864 C183.982,106.047 182.134,129.685 183.316,136.689 C183.853,139.864 185.511,142.57 187.816,144.469 C190.559,146.728 192.194,149.552 192.785,153.057 C192.945,154.011 193.106,154.966 193.269,155.92 C197.377,155.226 201.485,154.532 205.594,153.839 C205.434,152.884 205.272,151.929 205.111,150.976 C204.52,147.47 205.135,144.267 206.983,141.231 C208.536,138.681 209.214,135.582 208.677,132.405 C207.495,125.402 197.986,103.682 190.984,104.864" fill="#8F8EB9"/>
    <path d="M187.561,107.664 C183.394,114.366 182.357,131.005 183.316,136.689 C183.853,139.864 185.511,142.57 187.816,144.469 C190.559,146.728 192.194,149.552 192.785,153.057 C192.947,154.011 193.106,154.966 193.269,155.92 C197.377,155.226 201.485,154.532 205.594,153.839 C205.566,153.673 205.539,153.507 205.512,153.343 C202.7,153.817 199.89,154.292 197.08,154.766 C196.895,153.667 196.709,152.568 196.524,151.469 C195.842,147.434 194.131,144.153 191.32,141.492 C188.959,139.256 187.227,136.111 186.61,132.454 C185.81,127.716 185.916,116.419 187.561,107.664" fill="#7171A6"/>
    <path d="M192.497,105.775 C190.308,106.145 190.822,112.272 193.647,119.461 C196.468,126.651 200.533,132.179 202.721,131.809 C204.911,131.44 204.397,125.312 201.574,118.123 C198.749,110.933 194.687,105.405 192.497,105.775" fill="#BEBAD2"/>
    <path d="M206.711,148.367 C201.28,149.284 195.85,150.201 190.417,151.119 C191.156,155.487 191.894,159.856 192.631,164.225 C193.387,168.706 197.673,171.752 202.152,170.996 C206.633,170.239 209.68,165.955 208.924,161.473 C208.187,157.104 207.448,152.736 206.711,148.367" fill="#171716"/>
    <path d="M206.286,148.439 C202.343,149.105 198.397,149.771 194.457,150.438 C195.087,154.18 195.718,157.922 196.351,161.665 C196.899,164.919 200.012,167.132 203.265,166.582 C206.518,166.032 208.731,162.921 208.182,159.667 C207.55,155.924 206.918,152.182 206.286,148.439" fill="#2B2C2A"/>
    <path d="M205.755,148.529 C202.661,149.051 199.569,149.573 196.478,150.095 C196.975,153.03 197.468,155.964 197.965,158.9 C198.396,161.451 200.835,163.185 203.387,162.754 C205.938,162.324 207.672,159.883 207.241,157.334 C206.746,154.398 206.249,151.463 205.755,148.529" fill="#3F3F3D"/>
    <path d="M287.297,181.589 C287.232,174.487 264.181,168.935 257.079,168.999 C253.859,169.027 250.925,170.237 248.688,172.213 C246.023,174.566 242.977,175.734 239.422,175.766 L236.52,175.792 L236.63,188.292 L239.535,188.267 C243.089,188.235 246.155,189.348 248.861,191.653 C251.134,193.588 254.089,194.747 257.309,194.718 C264.412,194.654 287.359,188.692 287.297,181.589" fill="#F3B528"/>
    <path d="M285.071,177.766 C279.111,172.594 262.843,168.947 257.079,168.999 C253.859,169.027 250.925,170.237 248.688,172.213 C246.023,174.566 242.977,175.734 239.422,175.766 L236.52,175.792 L236.63,188.292 L237.134,188.288 L237.057,179.738 L240.402,179.709 C244.494,179.672 248.003,178.501 251.075,176.144 C253.654,174.165 257.034,172.951 260.741,172.917 C265.546,172.874 276.685,174.763 285.071,177.766" fill="#E9A62D"/>
    <path d="M286.159,182.939 C286.139,180.718 280.007,180.26 272.461,181.915 C264.918,183.569 258.818,186.709 258.839,188.93 C258.857,191.15 264.99,191.609 272.535,189.955 C280.078,188.3 286.178,185.159 286.159,182.939" fill="#F8C63B"/>
    <path d="M241.858,190.257 L241.71,173.733 L228.42,173.853 C223.876,173.893 220.19,177.644 220.231,182.188 C220.271,186.733 224.023,190.417 228.566,190.376 L241.858,190.257" fill="#171716"/>
    <path d="M241.854,189.827 L241.747,177.829 L230.36,177.93 C227.061,177.959 224.386,180.683 224.413,183.983 C224.444,187.283 227.167,189.959 230.467,189.928 L241.854,189.827" fill="#2B2C2A"/>
    <path d="M241.849,189.288 L241.765,179.88 L232.837,179.96 C230.249,179.983 228.151,182.119 228.175,184.706 C228.198,187.293 230.334,189.391 232.919,189.368 L241.849,189.288" fill="#3F3F3D"/>
    <path d="M259.311,356.917 L325.428,356.917 L325.428,386.175 L259.311,386.175 z" fill="#464744"/>
    <path d="M272.229,378.433 C276.022,378.433 279.117,375.338 279.117,371.544 C279.117,367.752 276.022,364.657 272.229,364.657 C268.435,364.657 265.342,367.752 265.342,371.544 C265.342,375.338 268.435,378.433 272.229,378.433" fill="#3C3D3A"/>
    <path d="M272.229,376.326 C274.861,376.326 277.01,374.178 277.01,371.544 C277.01,368.914 274.861,366.766 272.229,366.766 C269.596,366.766 267.449,368.914 267.449,371.544 C267.449,374.178 269.596,376.326 272.229,376.326" fill="#B9372B"/>
    <path d="M292.368,378.433 C296.162,378.433 299.257,375.338 299.257,371.544 C299.257,367.752 296.162,364.657 292.368,364.657 C288.575,364.657 285.481,367.752 285.481,371.544 C285.481,375.338 288.575,378.433 292.368,378.433" fill="#3C3D3A"/>
    <path d="M292.368,376.326 C295.001,376.326 297.149,374.178 297.149,371.544 C297.149,368.914 295.001,366.766 292.368,366.766 C289.735,366.766 287.589,368.914 287.589,371.544 C287.589,374.178 289.735,376.326 292.368,376.326" fill="#B3CF38"/>
    <path d="M313.458,378.433 C317.252,378.433 320.345,375.338 320.345,371.544 C320.345,367.752 317.252,364.657 313.458,364.657 C309.664,364.657 306.57,367.752 306.57,371.544 C306.57,375.338 309.664,378.433 313.458,378.433" fill="#3C3D3A"/>
    <path d="M313.458,376.326 C316.091,376.326 318.237,374.178 318.237,371.544 C318.237,368.914 316.091,366.766 313.458,366.766 C310.825,366.766 308.679,368.914 308.679,371.544 C308.679,374.178 310.825,376.326 313.458,376.326" fill="#B3CF38"/>
    <path d="M369.702,360.431 L382.338,360.431 L382.338,382.66 L369.702,382.66 C363.59,382.66 358.589,377.66 358.589,371.545 L358.589,371.544 C358.589,365.432 363.59,360.431 369.702,360.431" fill="#464744"/>
    <path d="M380.343,357.627 L385.188,357.627 L385.188,385.462 L380.343,385.462 z" fill="#171716"/>
  </g>
</svg>
